<svg xmlns="http://www.w3.org/2000/svg" viewBox="0 0 24 24" width="24" height="24"><path d="M11.745 4.032 C 11.662 4.052,11.541 4.104,11.475 4.147 C 11.409 4.189,9.734 5.849,7.752 7.835 C 3.724 11.871,4.011 11.552,4.010 12.000 C 4.009 12.288,4.104 12.509,4.318 12.718 C 4.590 12.983,4.988 13.063,5.361 12.927 C 5.527 12.866,5.659 12.740,8.250 10.152 C 9.744 8.660,10.975 7.440,10.988 7.440 C 11.000 7.440,11.010 10.085,11.010 13.319 C 11.010 19.196,11.010 19.198,11.072 19.364 C 11.153 19.580,11.373 19.807,11.602 19.912 C 11.846 20.024,12.154 20.024,12.398 19.912 C 12.627 19.807,12.847 19.580,12.928 19.364 C 12.990 19.198,12.990 19.196,12.990 13.319 C 12.990 10.085,13.000 7.440,13.012 7.440 C 13.025 7.440,14.256 8.660,15.750 10.152 C 18.341 12.740,18.473 12.866,18.639 12.927 C 19.012 13.063,19.410 12.983,19.682 12.718 C 19.896 12.509,19.991 12.288,19.990 12.000 C 19.989 11.552,20.277 11.872,16.233 7.821 C 14.091 5.676,12.563 4.169,12.489 4.127 C 12.356 4.052,12.113 3.988,11.976 3.993 C 11.931 3.994,11.827 4.012,11.745 4.032 " stroke="none" fill-rule="evenodd" fill="black" /></svg>
