<svg xmlns="http://www.w3.org/2000/svg" viewBox="0 0 24 24" width="24" height="24"><path d="M7.673 2.055 C 7.611 2.078,7.503 2.137,7.433 2.186 C 7.363 2.235,6.365 3.218,5.216 4.370 C 3.212 6.380,3.124 6.472,3.061 6.645 C 2.973 6.882,2.986 7.207,3.090 7.426 C 3.147 7.544,3.604 8.019,5.278 9.696 C 7.181 11.603,7.413 11.826,7.575 11.900 C 8.426 12.290,9.291 11.425,8.900 10.576 C 8.828 10.420,8.665 10.244,7.627 9.203 L 6.437 8.010 13.218 8.010 C 17.988 8.010,20.051 8.000,20.176 7.977 C 20.404 7.935,20.537 7.866,20.699 7.705 C 21.207 7.199,21.048 6.390,20.380 6.082 L 20.235 6.015 13.321 6.007 L 6.407 5.999 7.640 4.762 C 9.027 3.369,8.985 3.425,8.985 2.985 C 8.985 2.783,8.972 2.718,8.901 2.574 C 8.796 2.360,8.570 2.153,8.352 2.072 C 8.160 2.000,7.845 1.992,7.673 2.055 M15.762 12.032 C 15.308 12.141,14.975 12.596,15.006 13.065 C 15.031 13.443,15.060 13.480,16.373 14.797 L 17.563 15.990 10.799 15.990 C 6.220 15.990,3.972 16.001,3.840 16.022 C 2.961 16.164,2.701 17.315,3.433 17.819 C 3.715 18.012,3.187 17.999,10.724 18.000 L 17.593 18.000 16.361 19.238 C 14.973 20.631,15.015 20.575,15.015 21.015 C 15.015 21.216,15.028 21.282,15.098 21.424 C 15.328 21.893,15.874 22.109,16.371 21.926 C 16.536 21.866,16.655 21.753,18.684 19.729 C 21.108 17.310,20.985 17.456,20.985 16.995 C 20.985 16.770,20.973 16.700,20.912 16.575 C 20.854 16.458,20.378 15.963,18.722 14.304 C 16.867 12.445,16.584 12.173,16.435 12.105 C 16.243 12.018,15.953 11.986,15.762 12.032 " stroke="none" fill-rule="evenodd" fill="black" /></svg>
