<svg xmlns="http://www.w3.org/2000/svg" viewBox="0 0 24 24" width="24" height="24"><path d="M11.827 4.025 C 11.739 4.039,11.612 4.078,11.544 4.113 C 11.356 4.209,11.144 4.443,11.072 4.636 C 11.010 4.802,11.010 4.804,11.010 10.681 C 11.010 13.915,11.000 16.560,10.988 16.560 C 10.976 16.560,9.744 15.340,8.250 13.848 C 5.628 11.229,5.529 11.135,5.355 11.071 C 4.857 10.888,4.309 11.118,4.087 11.604 C 4.025 11.740,4.009 11.820,4.010 12.000 C 4.011 12.448,3.723 12.128,7.767 16.179 C 9.965 18.380,11.436 19.831,11.514 19.875 C 11.804 20.038,12.196 20.038,12.486 19.875 C 12.564 19.831,14.035 18.380,16.233 16.179 C 20.277 12.128,19.989 12.448,19.990 12.000 C 19.991 11.820,19.975 11.740,19.913 11.604 C 19.691 11.118,19.143 10.888,18.645 11.071 C 18.471 11.135,18.372 11.229,15.750 13.848 C 14.256 15.340,13.024 16.560,13.012 16.560 C 13.000 16.560,12.990 13.914,12.990 10.680 C 12.990 4.984,12.988 4.796,12.933 4.651 C 12.762 4.202,12.315 3.949,11.827 4.025 " stroke="none" fill-rule="evenodd" fill="black" /></svg>
