<svg xmlns="http://www.w3.org/2000/svg" viewBox="0 0 24 24" width="24" height="24"><path d="M8.550 1.023 C 5.474 1.170,2.718 3.154,1.562 6.054 C 1.185 7.002,1.008 7.941,1.008 9.000 C 1.008 9.653,1.036 9.948,1.159 10.574 C 1.529 12.464,2.624 14.205,4.188 15.390 C 4.943 15.962,5.885 16.430,6.811 16.694 C 7.014 16.752,7.183 16.803,7.188 16.808 C 7.194 16.814,7.246 16.984,7.304 17.186 C 7.647 18.379,8.256 19.471,9.081 20.374 C 10.406 21.824,12.118 22.704,14.100 22.953 C 14.505 23.004,15.495 23.004,15.900 22.953 C 18.601 22.614,20.892 21.032,22.104 18.667 C 22.718 17.470,22.989 16.346,22.989 15.000 C 22.989 14.331,22.952 13.941,22.832 13.366 C 22.237 10.518,20.105 8.188,17.325 7.348 C 17.111 7.283,16.912 7.230,16.884 7.230 C 16.815 7.230,16.811 7.220,16.693 6.807 C 15.873 3.932,13.491 1.738,10.560 1.158 C 9.922 1.032,9.276 0.989,8.550 1.023 M9.551 3.031 C 10.931 3.162,12.171 3.732,13.166 4.692 C 13.614 5.124,13.996 5.628,14.277 6.154 C 14.443 6.467,14.640 6.912,14.640 6.978 C 14.640 7.008,14.602 7.020,14.512 7.020 C 14.301 7.020,13.663 7.107,13.307 7.184 C 10.708 7.748,8.549 9.578,7.562 12.054 C 7.263 12.805,7.020 13.893,7.020 14.481 C 7.020 14.668,7.014 14.670,6.750 14.562 C 5.839 14.192,5.034 13.601,4.385 12.825 C 2.886 11.033,2.580 8.476,3.612 6.375 C 4.622 4.320,6.650 3.037,8.940 3.004 C 9.097 3.002,9.372 3.014,9.551 3.031 M15.000 9.112 C 15.000 9.588,14.869 10.350,14.697 10.873 C 14.272 12.168,13.401 13.291,12.234 14.052 C 11.377 14.610,10.115 15.000,9.166 15.000 L 9.000 15.000 9.000 14.887 C 9.000 14.414,9.131 13.652,9.303 13.127 C 9.715 11.865,10.591 10.722,11.715 9.982 C 12.608 9.393,13.768 9.029,14.827 9.004 L 15.000 9.000 15.000 9.112 M17.283 9.451 C 18.376 9.902,19.360 10.716,20.019 11.715 C 21.005 13.210,21.261 15.157,20.697 16.873 C 20.470 17.563,20.077 18.272,19.615 18.825 C 19.041 19.511,18.392 20.020,17.604 20.400 C 15.556 21.389,13.145 21.137,11.325 19.744 C 10.898 19.417,10.339 18.818,10.020 18.345 C 9.765 17.967,9.360 17.155,9.360 17.021 C 9.360 16.992,9.405 16.980,9.519 16.980 C 10.095 16.980,11.159 16.745,11.907 16.452 C 14.629 15.388,16.552 12.926,16.936 10.011 C 16.960 9.829,16.980 9.607,16.980 9.519 C 16.980 9.405,16.992 9.360,17.021 9.360 C 17.043 9.360,17.161 9.401,17.283 9.451 " stroke="none" fill="black" fill-rule="evenodd" /></svg>
