<svg xmlns="http://www.w3.org/2000/svg" viewBox="0 0 24 24" width="24" height="24"><path d="M11.460 1.025 C 7.470 1.188,3.824 3.606,2.085 7.242 C 1.524 8.415,1.189 9.611,1.046 10.950 C 0.999 11.394,0.999 12.606,1.046 13.050 C 1.189 14.389,1.524 15.585,2.085 16.758 C 3.606 19.938,6.589 22.208,10.062 22.828 C 10.740 22.949,11.207 22.988,12.000 22.988 C 13.731 22.988,15.235 22.647,16.781 21.905 C 19.664 20.520,21.816 17.911,22.634 14.805 C 23.304 12.263,23.048 9.601,21.905 7.219 C 20.581 4.463,18.117 2.357,15.180 1.472 C 13.982 1.111,12.809 0.970,11.460 1.025 M13.125 3.072 C 15.585 3.394,17.736 4.654,19.231 6.648 C 20.158 7.885,20.748 9.385,20.946 11.010 C 20.995 11.416,20.995 12.584,20.946 12.990 C 20.621 15.650,19.272 17.900,17.085 19.425 C 16.010 20.175,14.653 20.703,13.260 20.915 C 12.891 20.971,12.699 20.981,12.000 20.981 C 11.301 20.981,11.109 20.971,10.740 20.915 C 8.307 20.545,6.236 19.310,4.769 17.353 C 3.842 16.115,3.252 14.616,3.054 12.990 C 3.005 12.584,3.005 11.416,3.054 11.010 C 3.365 8.464,4.613 6.295,6.648 4.769 C 7.881 3.844,9.491 3.212,10.995 3.062 C 11.177 3.044,11.372 3.024,11.430 3.017 C 11.643 2.993,12.805 3.030,13.125 3.072 " stroke="none" fill="black" fill-rule="evenodd" /></svg>
