<svg xmlns="http://www.w3.org/2000/svg" viewBox="0 0 24 24" width="24" height="24"><path d="M11.423 1.022 C 10.672 1.061,9.869 1.184,9.647 1.295 C 9.266 1.486,9.039 1.940,9.120 2.350 C 9.186 2.687,9.364 2.925,9.665 3.077 C 9.882 3.188,10.083 3.198,10.545 3.124 C 10.759 3.090,11.097 3.048,11.295 3.031 C 11.991 2.972,12.688 3.002,13.455 3.124 C 13.919 3.198,14.118 3.188,14.338 3.076 C 14.687 2.899,14.885 2.576,14.890 2.175 C 14.894 1.815,14.685 1.467,14.368 1.305 C 14.230 1.234,13.796 1.142,13.320 1.082 C 13.089 1.053,11.968 0.984,11.895 0.995 C 11.878 0.997,11.666 1.009,11.423 1.022 M6.120 2.750 C 5.658 2.910,4.399 3.971,3.669 4.815 C 3.394 5.134,2.915 5.781,2.828 5.953 C 2.736 6.135,2.705 6.439,2.758 6.648 C 2.862 7.063,3.267 7.381,3.693 7.384 C 4.061 7.386,4.338 7.237,4.579 6.908 C 5.343 5.861,5.868 5.336,6.904 4.581 C 7.271 4.314,7.410 4.074,7.410 3.706 C 7.410 3.033,6.739 2.535,6.120 2.750 M17.269 2.788 C 17.048 2.877,16.902 2.991,16.790 3.161 C 16.657 3.365,16.620 3.481,16.620 3.704 C 16.620 4.062,16.750 4.320,17.040 4.538 C 17.114 4.594,17.290 4.725,17.430 4.830 C 18.153 5.369,18.784 6.023,19.375 6.846 C 19.595 7.154,19.726 7.269,19.947 7.352 C 20.315 7.490,20.688 7.411,20.991 7.132 C 21.302 6.845,21.387 6.367,21.195 5.987 C 21.105 5.809,20.611 5.139,20.331 4.815 C 19.838 4.245,19.227 3.678,18.587 3.197 C 18.068 2.807,17.957 2.752,17.655 2.739 C 17.468 2.732,17.382 2.742,17.269 2.788 M2.008 9.120 C 1.726 9.168,1.429 9.383,1.307 9.628 C 1.098 10.046,0.949 11.536,1.014 12.562 C 1.049 13.108,1.132 13.779,1.203 14.085 C 1.297 14.486,1.547 14.754,1.936 14.867 C 2.377 14.995,2.884 14.752,3.083 14.317 C 3.189 14.084,3.197 13.913,3.124 13.454 C 2.962 12.433,2.962 11.567,3.124 10.546 C 3.197 10.087,3.189 9.916,3.083 9.684 C 2.898 9.281,2.448 9.044,2.008 9.120 M21.638 9.122 C 21.316 9.185,21.050 9.393,20.916 9.685 C 20.811 9.916,20.803 10.088,20.876 10.546 C 20.910 10.760,20.952 11.097,20.969 11.295 C 21.028 11.990,20.998 12.687,20.876 13.454 C 20.803 13.913,20.811 14.084,20.917 14.317 C 21.116 14.752,21.623 14.995,22.064 14.867 C 22.453 14.754,22.703 14.486,22.797 14.085 C 22.868 13.778,22.951 13.108,22.985 12.563 C 23.050 11.529,22.902 10.045,22.693 9.628 C 22.515 9.272,22.038 9.043,21.638 9.122 M3.420 16.618 C 3.197 16.686,2.914 16.913,2.822 17.099 C 2.672 17.402,2.666 17.737,2.805 18.013 C 2.850 18.101,3.021 18.353,3.187 18.573 C 3.863 19.474,4.523 20.135,5.413 20.803 C 5.972 21.223,6.040 21.255,6.390 21.255 C 6.635 21.255,6.696 21.244,6.822 21.180 C 7.144 21.015,7.355 20.704,7.375 20.362 C 7.402 19.895,7.285 19.708,6.690 19.262 C 5.823 18.614,5.283 18.060,4.581 17.096 C 4.391 16.834,4.268 16.730,4.051 16.648 C 3.895 16.588,3.568 16.573,3.420 16.618 M20.010 16.646 C 19.739 16.735,19.572 16.874,19.336 17.207 C 18.801 17.959,18.131 18.648,17.415 19.181 C 16.855 19.598,16.781 19.666,16.691 19.850 C 16.508 20.223,16.575 20.678,16.856 20.979 C 17.157 21.301,17.623 21.389,18.009 21.198 C 18.180 21.114,18.854 20.617,19.185 20.331 C 19.755 19.838,20.322 19.227,20.803 18.587 C 21.223 18.028,21.255 17.960,21.255 17.610 C 21.255 17.365,21.244 17.304,21.180 17.179 C 21.085 16.991,20.908 16.815,20.716 16.717 C 20.598 16.657,20.512 16.638,20.325 16.631 C 20.193 16.626,20.051 16.633,20.010 16.646 M9.840 20.846 C 9.585 20.930,9.320 21.144,9.214 21.352 C 8.910 21.949,9.246 22.641,9.915 22.797 C 10.582 22.951,11.759 23.035,12.563 22.985 C 13.108 22.951,13.778 22.868,14.085 22.797 C 14.574 22.683,14.896 22.295,14.890 21.825 C 14.885 21.423,14.686 21.101,14.329 20.919 C 14.124 20.814,13.869 20.812,13.260 20.909 C 12.846 20.975,12.706 20.983,11.985 20.982 C 11.292 20.981,11.114 20.971,10.755 20.913 C 10.269 20.835,9.947 20.811,9.840 20.846 " stroke="none" fill-rule="evenodd" fill="black" /></svg>
