<svg xmlns="http://www.w3.org/2000/svg" viewBox="0 0 24 24" width="24" height="24"><path d="M11.460 1.025 C 7.470 1.188,3.824 3.606,2.085 7.242 C 1.524 8.415,1.189 9.611,1.046 10.950 C 0.999 11.394,0.999 12.606,1.046 13.050 C 1.189 14.389,1.524 15.585,2.085 16.758 C 3.606 19.938,6.589 22.208,10.062 22.828 C 10.740 22.949,11.207 22.988,12.000 22.988 C 13.731 22.988,15.235 22.647,16.781 21.905 C 19.664 20.520,21.816 17.911,22.634 14.805 C 23.304 12.263,23.048 9.601,21.905 7.219 C 20.581 4.463,18.117 2.357,15.180 1.472 C 13.982 1.111,12.809 0.970,11.460 1.025 M13.125 3.072 C 15.585 3.394,17.736 4.654,19.231 6.648 C 20.158 7.885,20.748 9.385,20.946 11.010 C 20.995 11.416,20.995 12.584,20.946 12.990 C 20.621 15.650,19.272 17.900,17.085 19.425 C 16.010 20.175,14.653 20.703,13.260 20.915 C 12.891 20.971,12.699 20.981,12.000 20.981 C 11.301 20.981,11.109 20.971,10.740 20.915 C 8.307 20.545,6.236 19.310,4.769 17.353 C 3.842 16.115,3.252 14.616,3.054 12.990 C 3.005 12.584,3.005 11.416,3.054 11.010 C 3.365 8.464,4.613 6.295,6.648 4.769 C 7.881 3.844,9.491 3.212,10.995 3.062 C 11.177 3.044,11.372 3.024,11.430 3.017 C 11.643 2.993,12.805 3.030,13.125 3.072 M11.318 6.046 C 9.864 6.273,8.601 7.322,8.148 8.679 C 7.994 9.138,8.194 9.646,8.616 9.871 C 8.774 9.955,8.844 9.974,9.045 9.984 C 9.253 9.995,9.308 9.986,9.457 9.920 C 9.770 9.781,9.852 9.691,10.070 9.241 C 10.250 8.871,10.290 8.813,10.513 8.592 C 10.913 8.196,11.359 8.010,11.912 8.010 C 12.468 8.010,12.924 8.192,13.304 8.565 C 13.549 8.805,13.710 9.060,13.821 9.387 C 13.885 9.573,13.900 9.674,13.902 9.933 C 13.905 10.246,13.903 10.254,13.786 10.484 C 13.518 11.014,12.764 11.575,11.773 11.985 C 11.373 12.150,11.248 12.232,11.117 12.413 C 10.868 12.756,10.862 13.206,11.100 13.566 C 11.297 13.863,11.739 14.053,12.077 13.985 C 12.449 13.910,13.372 13.476,13.905 13.124 C 14.719 12.588,15.248 12.031,15.586 11.355 C 15.946 10.634,16.012 9.890,15.793 9.020 C 15.345 7.232,13.726 5.984,11.880 6.004 C 11.707 6.005,11.454 6.024,11.318 6.046 M11.827 16.026 C 11.613 16.058,11.448 16.147,11.277 16.323 C 10.816 16.797,10.969 17.604,11.576 17.902 C 11.720 17.973,11.782 17.985,12.000 17.985 C 12.308 17.985,12.511 17.903,12.715 17.699 C 12.877 17.536,12.946 17.402,12.988 17.172 C 13.111 16.491,12.531 15.919,11.827 16.026 " stroke="none" fill-rule="evenodd" fill="black" /></svg>
