<svg xmlns="http://www.w3.org/2000/svg" viewBox="0 0 24 24" width="24" height="24"><path d="M8.775 1.020 C 8.377 1.064,8.116 1.170,7.779 1.423 C 7.346 1.749,7.074 2.242,7.004 2.827 L 6.983 3.000 6.409 3.000 C 5.783 3.000,5.377 3.046,5.066 3.153 C 4.023 3.510,3.279 4.355,3.060 5.432 C 3.001 5.719,3.000 5.859,3.000 12.983 C 3.000 20.850,2.992 20.464,3.160 20.955 C 3.506 21.971,4.346 22.712,5.410 22.942 C 5.640 22.992,6.052 22.995,12.030 22.995 L 18.405 22.995 18.669 22.928 C 19.566 22.699,20.314 22.108,20.677 21.342 C 20.764 21.157,20.775 21.107,20.774 20.880 C 20.772 20.687,20.757 20.591,20.709 20.487 C 20.501 20.032,19.985 19.794,19.512 19.934 C 19.260 20.009,19.097 20.140,18.917 20.413 C 18.734 20.691,18.591 20.830,18.392 20.922 L 18.255 20.985 12.000 20.985 L 5.745 20.985 5.574 20.901 C 5.360 20.796,5.153 20.570,5.071 20.352 L 5.010 20.186 5.017 12.951 L 5.025 5.715 5.105 5.565 C 5.206 5.374,5.374 5.206,5.565 5.105 C 5.712 5.027,5.730 5.025,6.349 5.015 L 6.984 5.006 7.005 5.195 C 7.062 5.686,7.234 6.035,7.604 6.406 C 7.905 6.707,8.165 6.860,8.520 6.943 C 8.813 7.012,15.187 7.012,15.480 6.943 C 15.835 6.860,16.095 6.707,16.396 6.406 C 16.766 6.035,16.938 5.686,16.995 5.195 L 17.016 5.006 17.651 5.015 C 18.270 5.025,18.288 5.027,18.435 5.105 C 18.626 5.206,18.794 5.374,18.895 5.565 L 18.975 5.715 18.992 6.630 C 19.009 7.504,19.023 7.637,19.112 7.803 C 19.230 8.025,19.489 8.236,19.728 8.305 C 20.130 8.420,20.579 8.255,20.820 7.904 C 20.987 7.662,20.999 7.573,21.000 6.605 C 21.000 5.844,20.992 5.685,20.940 5.432 C 20.721 4.355,19.977 3.510,18.934 3.153 C 18.623 3.046,18.217 3.000,17.591 3.000 L 17.017 3.000 16.996 2.827 C 16.909 2.099,16.509 1.522,15.863 1.196 C 15.475 1.001,15.637 1.009,12.150 1.003 C 10.409 0.999,8.891 1.007,8.775 1.020 M15.000 4.005 L 15.000 5.010 12.000 5.010 L 9.000 5.010 9.000 4.005 L 9.000 3.000 12.000 3.000 L 15.000 3.000 15.000 4.005 M16.762 9.031 C 16.503 9.096,16.226 9.312,16.111 9.538 C 15.976 9.804,15.972 10.153,16.099 10.434 C 16.130 10.504,16.603 11.000,17.366 11.767 L 18.582 12.988 14.684 12.997 L 10.785 13.005 10.601 13.090 C 10.074 13.334,9.853 13.953,10.111 14.462 C 10.193 14.622,10.405 14.820,10.590 14.907 L 10.755 14.985 14.669 14.993 L 18.583 15.001 17.378 16.208 C 16.007 17.581,16.009 17.579,16.009 18.000 C 16.009 18.288,16.104 18.510,16.318 18.718 C 16.526 18.920,16.739 18.999,17.040 18.984 C 17.458 18.964,17.348 19.059,19.707 16.699 C 21.235 15.171,21.853 14.534,21.904 14.434 C 21.958 14.327,21.977 14.234,21.985 14.030 C 22.004 13.563,22.121 13.703,19.704 11.289 C 17.862 9.449,17.574 9.173,17.425 9.106 C 17.235 9.019,16.941 8.986,16.762 9.031 " stroke="none" fill-rule="evenodd" fill="black" /></svg>
