<svg xmlns="http://www.w3.org/2000/svg" viewBox="0 0 24 24" width="24" height="24"><path d="M3.486 2.071 C 2.952 2.211,2.462 2.607,2.225 3.090 C 1.999 3.553,2.010 3.377,2.010 6.497 C 2.010 9.191,2.012 9.299,2.070 9.525 C 2.157 9.867,2.307 10.113,2.607 10.410 C 2.889 10.689,3.091 10.813,3.450 10.925 L 3.675 10.995 6.495 10.995 C 9.132 10.995,9.327 10.991,9.508 10.940 C 10.199 10.744,10.744 10.199,10.940 9.508 C 10.991 9.327,10.995 9.132,10.995 6.495 L 10.995 3.675 10.925 3.450 C 10.810 3.082,10.691 2.890,10.396 2.594 C 10.181 2.379,10.076 2.299,9.890 2.209 C 9.468 2.006,9.560 2.011,6.480 2.012 C 3.848 2.013,3.694 2.016,3.486 2.071 M13.673 2.055 C 13.127 2.256,12.853 2.885,13.088 3.398 C 13.237 3.724,13.605 3.990,13.906 3.990 L 14.010 3.990 14.010 6.492 L 14.010 8.993 13.867 9.014 C 13.563 9.058,13.242 9.280,13.111 9.538 C 12.917 9.920,12.991 10.385,13.295 10.698 C 13.660 11.075,14.306 11.099,14.955 10.760 C 15.229 10.617,15.649 10.184,15.787 9.900 C 15.996 9.473,15.989 9.594,15.990 6.494 C 15.990 3.377,16.001 3.553,15.775 3.090 C 15.535 2.601,15.045 2.208,14.502 2.069 C 14.232 2.000,13.841 1.994,13.673 2.055 M18.639 2.071 C 18.427 2.156,18.202 2.365,18.099 2.574 C 18.027 2.721,18.015 2.781,18.015 3.000 C 18.015 3.218,18.027 3.280,18.098 3.424 C 18.247 3.728,18.619 3.990,18.901 3.990 L 18.990 3.990 18.990 6.491 L 18.990 8.992 18.815 9.027 C 18.027 9.182,17.734 10.140,18.301 10.705 C 18.465 10.868,18.598 10.936,18.835 10.979 C 19.551 11.109,20.432 10.617,20.792 9.887 C 21.008 9.448,21.003 9.540,20.993 6.410 L 20.985 3.615 20.903 3.373 C 20.703 2.783,20.197 2.280,19.620 2.096 C 19.494 2.057,19.313 2.030,19.110 2.022 C 18.842 2.011,18.772 2.018,18.639 2.071 M9.000 6.495 L 9.000 9.000 6.495 9.000 L 3.990 9.000 3.990 6.495 L 3.990 3.990 6.495 3.990 L 9.000 3.990 9.000 6.495 M2.827 13.025 C 2.497 13.077,2.187 13.329,2.070 13.641 C 2.008 13.809,2.006 13.842,2.017 15.179 C 2.028 16.469,2.032 16.557,2.092 16.755 C 2.425 17.848,3.151 18.574,4.245 18.908 C 4.446 18.969,4.524 18.972,6.007 18.983 C 6.861 18.989,7.560 19.002,7.560 19.013 C 7.560 19.024,7.238 19.357,6.844 19.754 C 6.030 20.575,6.015 20.597,6.015 21.015 C 6.015 21.216,6.028 21.282,6.098 21.424 C 6.328 21.893,6.874 22.109,7.371 21.926 C 7.535 21.866,7.641 21.767,9.174 20.239 C 10.136 19.280,10.832 18.562,10.875 18.485 C 11.033 18.204,11.033 17.796,10.875 17.515 C 10.832 17.438,10.139 16.724,9.189 15.777 C 7.400 13.994,7.448 14.034,7.050 14.015 C 6.763 14.002,6.543 14.079,6.333 14.268 C 6.110 14.468,6.015 14.683,6.015 14.985 C 6.015 15.403,6.030 15.425,6.844 16.246 C 7.238 16.643,7.560 16.977,7.560 16.989 C 7.560 17.023,5.008 17.014,4.827 16.979 C 4.497 16.917,4.233 16.708,4.090 16.399 L 4.005 16.215 3.990 14.970 C 3.977 13.873,3.969 13.711,3.923 13.610 C 3.730 13.184,3.295 12.952,2.827 13.025 M14.775 13.020 C 14.502 13.050,14.334 13.097,14.131 13.200 C 13.607 13.464,13.218 13.933,13.060 14.491 C 13.008 14.673,13.005 14.859,13.005 17.505 L 13.005 20.325 13.075 20.550 C 13.190 20.918,13.309 21.110,13.604 21.406 C 13.905 21.707,14.165 21.860,14.520 21.943 C 14.811 22.012,20.207 22.013,20.476 21.945 C 21.025 21.806,21.535 21.399,21.775 20.910 C 22.001 20.447,21.990 20.623,21.990 17.506 C 21.989 14.406,21.996 14.527,21.787 14.100 C 21.634 13.786,21.228 13.379,20.910 13.222 C 20.454 12.996,20.633 13.008,17.655 13.002 C 16.186 12.999,14.890 13.007,14.775 13.020 M20.010 17.505 L 20.010 20.010 17.505 20.010 L 15.000 20.010 15.000 17.505 L 15.000 15.000 17.505 15.000 L 20.010 15.000 20.010 17.505 " stroke="none" fill-rule="evenodd" fill="black" /></svg>
