<svg xmlns="http://www.w3.org/2000/svg" viewBox="0 0 24 24" width="24" height="24"><path d="M11.460 1.025 C 7.470 1.188,3.824 3.606,2.085 7.242 C 1.524 8.415,1.189 9.611,1.046 10.950 C 0.999 11.394,0.999 12.606,1.046 13.050 C 1.189 14.389,1.524 15.585,2.085 16.758 C 3.606 19.938,6.589 22.208,10.062 22.828 C 10.740 22.949,11.207 22.988,12.000 22.988 C 13.731 22.988,15.235 22.647,16.781 21.905 C 19.664 20.520,21.816 17.911,22.634 14.805 C 23.304 12.263,23.048 9.601,21.905 7.219 C 20.581 4.463,18.117 2.357,15.180 1.472 C 13.982 1.111,12.809 0.970,11.460 1.025 M13.125 3.072 C 15.585 3.394,17.736 4.654,19.231 6.648 C 20.158 7.885,20.748 9.385,20.946 11.010 C 20.995 11.416,20.995 12.584,20.946 12.990 C 20.621 15.650,19.272 17.900,17.085 19.425 C 16.010 20.175,14.653 20.703,13.260 20.915 C 12.891 20.971,12.699 20.981,12.000 20.981 C 11.301 20.981,11.109 20.971,10.740 20.915 C 8.307 20.545,6.236 19.310,4.769 17.353 C 3.842 16.115,3.252 14.616,3.054 12.990 C 3.005 12.584,3.005 11.416,3.054 11.010 C 3.365 8.464,4.613 6.295,6.648 4.769 C 7.881 3.844,9.491 3.212,10.995 3.062 C 11.177 3.044,11.372 3.024,11.430 3.017 C 11.643 2.993,12.805 3.030,13.125 3.072 M11.730 5.038 C 11.474 5.116,11.222 5.329,11.097 5.574 L 11.025 5.715 11.025 12.000 L 11.025 18.285 11.098 18.427 C 11.190 18.609,11.391 18.810,11.573 18.902 C 11.708 18.972,11.740 18.975,12.255 18.973 C 12.626 18.971,12.889 18.954,13.095 18.918 C 14.260 18.714,15.284 18.279,16.200 17.600 C 16.567 17.328,17.328 16.567,17.600 16.200 C 18.278 15.285,18.705 14.280,18.919 13.095 C 18.963 12.855,18.974 12.636,18.974 12.000 C 18.974 11.364,18.963 11.145,18.919 10.905 C 18.648 9.401,18.040 8.191,17.040 7.159 C 16.645 6.751,16.366 6.512,15.960 6.233 C 15.020 5.587,13.956 5.188,12.823 5.055 C 12.417 5.008,11.858 4.999,11.730 5.038 M13.431 7.217 C 14.743 7.613,15.813 8.505,16.442 9.728 C 16.817 10.457,16.983 11.151,16.983 12.000 C 16.983 12.811,16.822 13.517,16.486 14.190 C 15.885 15.393,14.928 16.250,13.680 16.704 C 13.435 16.793,13.092 16.890,13.023 16.890 C 12.999 16.890,12.990 15.552,12.990 12.000 C 12.990 7.761,12.996 7.110,13.033 7.110 C 13.057 7.110,13.236 7.158,13.431 7.217 " stroke="none" fill-rule="evenodd" fill="black" /></svg>
