<svg xmlns="http://www.w3.org/2000/svg" viewBox="0 0 24 24" width="24" height="24"><path d="M3.705 1.023 C 3.006 1.086,2.302 1.433,1.815 1.954 C 1.477 2.316,1.230 2.767,1.088 3.285 L 1.005 3.585 1.005 9.000 L 1.005 14.415 1.088 14.715 C 1.330 15.596,1.857 16.259,2.636 16.661 C 3.112 16.907,3.790 17.050,4.158 16.982 C 4.718 16.879,5.077 16.373,4.978 15.828 C 4.936 15.598,4.867 15.464,4.705 15.301 C 4.527 15.123,4.325 15.036,4.014 15.004 C 3.566 14.959,3.261 14.760,3.094 14.404 L 3.015 14.235 3.015 9.000 L 3.015 3.765 3.094 3.596 C 3.196 3.380,3.380 3.196,3.596 3.094 L 3.765 3.015 9.000 3.015 L 14.235 3.015 14.404 3.094 C 14.758 3.260,14.951 3.554,14.996 3.996 C 15.027 4.308,15.121 4.526,15.301 4.705 C 15.464 4.867,15.598 4.936,15.828 4.978 C 16.152 5.037,16.478 4.932,16.705 4.698 C 16.954 4.442,17.032 4.161,16.982 3.709 C 16.819 2.244,15.702 1.150,14.238 1.020 C 13.835 0.984,4.103 0.987,3.705 1.023 M9.705 7.023 C 9.005 7.086,8.302 7.433,7.813 7.956 C 7.449 8.345,7.218 8.780,7.073 9.346 L 7.005 9.615 7.005 15.015 L 7.005 20.415 7.085 20.704 C 7.251 21.304,7.477 21.700,7.888 22.112 C 8.300 22.523,8.696 22.749,9.296 22.915 L 9.585 22.995 15.000 22.995 L 20.415 22.995 20.704 22.915 C 21.304 22.749,21.700 22.523,22.112 22.112 C 22.523 21.700,22.749 21.304,22.915 20.704 L 22.995 20.415 22.995 15.000 L 22.995 9.585 22.915 9.296 C 22.762 8.743,22.539 8.333,22.187 7.956 C 21.681 7.414,21.001 7.088,20.238 7.020 C 19.835 6.984,10.103 6.987,9.705 7.023 M20.404 9.094 C 20.620 9.196,20.804 9.380,20.906 9.596 L 20.985 9.765 20.985 15.000 L 20.985 20.235 20.919 20.377 C 20.783 20.673,20.566 20.872,20.288 20.956 C 20.073 21.021,9.927 21.021,9.712 20.956 C 9.434 20.872,9.217 20.673,9.081 20.377 L 9.015 20.235 9.015 15.000 L 9.015 9.765 9.093 9.600 C 9.233 9.302,9.442 9.124,9.748 9.041 C 9.855 9.012,11.022 9.005,15.060 9.009 L 20.235 9.015 20.404 9.094 " stroke="none" fill-rule="evenodd" fill="black" /></svg>
