<svg xmlns="http://www.w3.org/2000/svg" viewBox="0 0 24 24" width="24" height="24"><path d="M5.827 1.025 C 5.739 1.039,5.612 1.078,5.544 1.113 C 5.356 1.209,5.144 1.443,5.072 1.636 C 5.012 1.797,5.010 1.856,5.010 3.405 L 5.010 5.009 3.367 5.017 L 1.725 5.025 1.576 5.098 C 1.090 5.337,0.871 5.923,1.088 6.398 C 1.193 6.627,1.420 6.847,1.636 6.928 C 1.797 6.988,1.856 6.990,3.406 6.990 L 5.009 6.990 5.017 11.768 L 5.026 16.545 5.091 16.755 C 5.265 17.316,5.517 17.748,5.885 18.115 C 6.252 18.483,6.684 18.735,7.245 18.909 L 7.455 18.974 12.232 18.983 L 17.010 18.991 17.010 20.594 C 17.010 22.144,17.012 22.203,17.072 22.364 C 17.153 22.580,17.373 22.807,17.602 22.912 C 17.846 23.024,18.154 23.024,18.398 22.912 C 18.627 22.807,18.847 22.580,18.928 22.364 C 18.988 22.203,18.990 22.144,18.990 20.594 L 18.990 18.990 20.594 18.990 C 22.144 18.990,22.203 18.988,22.364 18.928 C 22.580 18.847,22.807 18.627,22.912 18.398 C 23.023 18.155,23.024 17.845,22.913 17.604 C 22.818 17.397,22.625 17.197,22.424 17.098 L 22.275 17.025 20.633 17.017 L 18.991 17.009 18.983 12.232 L 18.974 7.455 18.909 7.245 C 18.735 6.684,18.483 6.252,18.115 5.885 C 17.753 5.523,17.276 5.246,16.755 5.095 L 16.515 5.025 11.752 5.017 L 6.990 5.009 6.990 3.405 C 6.990 1.904,6.986 1.791,6.933 1.651 C 6.762 1.202,6.315 0.949,5.827 1.025 M16.395 7.089 C 16.629 7.198,16.805 7.373,16.910 7.601 L 16.995 7.785 17.003 12.397 L 17.011 17.010 12.500 17.010 C 9.567 17.010,7.932 16.999,7.827 16.979 C 7.498 16.917,7.233 16.709,7.090 16.399 L 7.005 16.215 6.997 11.602 L 6.989 6.989 11.602 6.997 L 16.215 7.005 16.395 7.089 " stroke="none" fill-rule="evenodd" fill="black" /></svg>
