<svg xmlns="http://www.w3.org/2000/svg" viewBox="0 0 24 24" width="24" height="24"><path d="M13.810 2.040 C 13.535 2.097,13.236 2.319,13.117 2.557 C 13.081 2.629,13.011 2.859,12.962 3.068 C 12.728 4.053,12.339 5.003,11.777 5.967 C 11.575 6.312,11.530 6.497,11.580 6.764 C 11.673 7.256,12.067 7.590,12.554 7.590 C 12.805 7.590,13.051 7.498,13.222 7.340 C 13.345 7.227,13.595 6.835,13.883 6.302 L 14.004 6.080 14.101 6.272 C 14.376 6.820,14.840 7.555,15.271 8.128 C 15.843 8.887,16.482 9.551,17.310 10.245 C 17.910 10.748,18.213 11.038,18.563 11.445 C 19.284 12.285,19.760 13.241,19.921 14.177 C 19.991 14.587,20.005 15.348,19.950 15.797 C 19.828 16.792,19.451 17.740,18.845 18.570 C 18.012 19.712,16.856 20.491,15.464 20.850 C 13.860 21.264,12.061 20.948,10.685 20.011 C 10.406 19.821,10.251 19.697,9.879 19.363 C 9.551 19.070,9.413 19.007,9.088 19.007 C 8.870 19.007,8.807 19.019,8.665 19.089 C 8.196 19.318,7.981 19.867,8.165 20.361 C 8.218 20.505,8.279 20.583,8.517 20.815 C 9.362 21.637,10.514 22.318,11.649 22.664 C 12.488 22.920,13.142 23.018,14.010 23.019 C 15.324 23.020,16.442 22.753,17.625 22.155 C 19.877 21.017,21.435 18.914,21.881 16.410 C 22.044 15.491,22.023 14.340,21.827 13.485 C 21.432 11.765,20.405 10.223,18.720 8.820 C 17.727 7.994,17.136 7.350,16.503 6.405 C 15.826 5.394,15.357 4.344,15.069 3.195 C 14.994 2.898,14.913 2.615,14.888 2.565 C 14.693 2.185,14.223 1.956,13.810 2.040 M6.814 4.321 C 6.620 4.361,6.439 4.458,6.299 4.598 C 6.137 4.760,6.079 4.879,5.988 5.238 C 5.770 6.092,5.436 6.767,4.875 7.485 C 4.669 7.749,4.431 7.983,3.975 8.374 C 3.083 9.140,2.534 9.917,2.221 10.859 C 1.807 12.106,2.008 13.685,2.730 14.865 C 3.520 16.156,4.824 17.024,6.315 17.252 C 6.649 17.303,7.424 17.296,7.763 17.239 C 9.536 16.942,11.020 15.734,11.654 14.072 C 12.431 12.036,11.869 9.976,10.122 8.461 C 9.220 7.678,8.821 7.184,8.415 6.345 C 8.221 5.944,8.130 5.690,7.998 5.183 C 7.956 5.023,7.889 4.840,7.850 4.777 C 7.637 4.440,7.192 4.245,6.814 4.321 M7.201 8.235 C 7.481 8.656,7.814 9.040,8.270 9.468 C 9.253 10.391,9.501 10.669,9.719 11.099 C 10.048 11.744,10.078 12.579,9.798 13.323 C 9.544 14.002,9.024 14.599,8.391 14.940 C 7.425 15.461,6.297 15.408,5.375 14.798 C 4.613 14.294,4.099 13.436,4.025 12.542 C 3.940 11.530,4.290 10.760,5.191 9.976 C 5.952 9.313,6.608 8.589,6.928 8.060 C 6.966 7.997,7.008 7.957,7.020 7.970 C 7.032 7.984,7.114 8.103,7.201 8.235 " stroke="none" fill-rule="evenodd" fill="black" /></svg>
