<svg xmlns="http://www.w3.org/2000/svg" viewBox="0 0 24 24" width="24" height="24"><path d="M13.575 2.032 C 13.180 2.086,12.683 2.283,12.291 2.538 C 12.122 2.648,10.949 3.805,6.912 7.842 C 4.072 10.682,1.687 13.087,1.612 13.187 C 1.340 13.548,1.134 14.015,1.048 14.460 C 0.999 14.711,0.999 15.289,1.048 15.540 C 1.134 15.986,1.341 16.453,1.612 16.813 C 1.687 16.913,2.722 17.968,3.912 19.158 C 5.721 20.967,6.117 21.349,6.332 21.489 C 6.619 21.678,6.899 21.805,7.248 21.906 L 7.485 21.975 14.385 21.975 L 21.285 21.975 21.427 21.902 C 21.609 21.810,21.810 21.609,21.902 21.427 C 21.964 21.306,21.975 21.242,21.975 21.000 C 21.975 20.758,21.964 20.694,21.903 20.574 C 21.809 20.390,21.623 20.204,21.435 20.104 L 21.285 20.025 18.277 20.017 C 16.623 20.013,15.270 19.999,15.270 19.987 C 15.270 19.975,16.843 18.392,18.767 16.470 C 20.690 14.548,22.329 12.887,22.409 12.780 C 22.714 12.371,22.922 11.830,22.983 11.284 C 23.057 10.616,22.855 9.850,22.451 9.275 C 22.298 9.056,16.235 2.960,15.900 2.688 C 15.341 2.234,14.696 2.006,13.995 2.015 C 13.813 2.017,13.624 2.025,13.575 2.032 M14.315 4.053 C 14.375 4.069,14.503 4.140,14.600 4.212 C 14.696 4.284,16.134 5.705,17.796 7.369 C 21.200 10.779,20.983 10.532,20.983 10.995 C 20.983 11.461,21.252 11.161,17.361 15.053 L 13.905 18.510 10.200 14.805 L 6.495 11.100 9.945 7.648 C 12.583 5.008,13.430 4.178,13.545 4.119 C 13.773 4.001,14.020 3.980,14.315 4.053 M12.451 19.964 C 12.415 20.008,12.191 20.011,10.098 20.003 C 7.928 19.995,7.776 19.991,7.635 19.938 C 7.502 19.889,7.242 19.640,5.335 17.737 C 2.906 15.313,3.017 15.444,3.017 15.002 C 3.017 14.587,3.018 14.587,4.121 13.477 L 5.084 12.509 8.788 16.213 C 12.041 19.467,12.486 19.922,12.451 19.964 " stroke="none" fill-rule="evenodd" fill="black" /></svg>
