<svg xmlns="http://www.w3.org/2000/svg" viewBox="0 0 24 24" width="24" height="24"><path d="M11.445 4.024 C 8.632 4.130,5.884 5.320,3.829 7.320 C 2.741 8.379,1.911 9.549,1.320 10.855 C 1.057 11.437,1.006 11.623,1.006 12.000 C 1.006 12.372,1.055 12.556,1.305 13.113 C 2.141 14.974,3.550 16.670,5.261 17.871 C 6.910 19.030,8.816 19.732,10.905 19.953 C 11.363 20.001,12.630 20.002,13.080 19.955 C 15.832 19.663,18.243 18.553,20.156 16.695 C 21.252 15.631,22.105 14.428,22.695 13.113 C 22.945 12.556,22.994 12.372,22.994 12.000 C 22.994 11.628,22.945 11.444,22.695 10.887 C 21.890 9.093,20.548 7.447,18.922 6.261 C 16.992 4.852,14.683 4.068,12.300 4.013 C 12.110 4.009,11.726 4.014,11.445 4.024 M13.141 6.075 C 16.508 6.467,19.451 8.609,20.861 11.693 L 21.002 12.001 20.845 12.338 C 20.139 13.859,19.070 15.160,17.715 16.144 C 16.372 17.120,14.751 17.744,13.035 17.945 C 12.610 17.995,11.390 17.995,10.965 17.945 C 8.456 17.651,6.251 16.492,4.618 14.610 C 4.013 13.912,3.528 13.158,3.140 12.307 L 2.999 12.000 3.140 11.692 C 4.144 9.495,5.930 7.756,8.175 6.788 C 9.185 6.353,10.372 6.080,11.520 6.018 C 11.852 6.000,12.778 6.033,13.141 6.075 M11.370 8.053 C 10.358 8.234,9.511 8.723,8.909 9.471 C 8.494 9.987,8.264 10.456,8.097 11.130 C 8.035 11.380,8.026 11.486,8.026 12.000 C 8.026 12.638,8.065 12.875,8.252 13.385 C 8.651 14.473,9.527 15.349,10.615 15.748 C 11.125 15.935,11.362 15.974,12.000 15.974 C 12.638 15.974,12.875 15.935,13.385 15.748 C 14.473 15.349,15.349 14.473,15.748 13.385 C 15.935 12.875,15.974 12.638,15.974 12.000 C 15.974 11.362,15.935 11.125,15.748 10.615 C 15.277 9.332,14.177 8.385,12.810 8.085 C 12.504 8.017,11.670 7.999,11.370 8.053 M12.503 10.067 C 13.158 10.214,13.782 10.839,13.936 11.507 C 13.997 11.767,13.997 12.231,13.937 12.489 C 13.782 13.159,13.199 13.750,12.508 13.938 C 12.248 14.009,11.752 14.009,11.491 13.938 C 10.799 13.749,10.218 13.160,10.063 12.489 C 10.003 12.231,10.003 11.767,10.064 11.507 C 10.187 10.975,10.602 10.466,11.131 10.200 C 11.512 10.007,12.016 9.959,12.503 10.067 " stroke="none" fill-rule="evenodd" fill="black" /></svg>
