<svg xmlns="http://www.w3.org/2000/svg" viewBox="0 0 24 24" width="24" height="24"><path d="M5.718 1.022 C 4.378 1.141,3.280 2.161,3.044 3.506 C 2.978 3.885,2.978 20.115,3.044 20.494 C 3.258 21.715,4.146 22.645,5.378 22.940 C 5.574 22.986,5.873 22.992,8.469 23.002 C 10.357 23.009,11.400 23.002,11.510 22.982 C 12.068 22.879,12.427 22.373,12.328 21.828 C 12.310 21.729,12.270 21.600,12.240 21.540 C 12.157 21.378,11.945 21.180,11.760 21.093 L 11.595 21.015 8.670 21.000 L 5.745 20.985 5.574 20.901 C 5.360 20.796,5.153 20.570,5.072 20.352 C 5.010 20.188,5.010 20.186,5.010 12.000 C 5.010 3.814,5.010 3.812,5.072 3.648 C 5.153 3.430,5.360 3.204,5.574 3.099 L 5.745 3.015 9.366 3.007 L 12.987 2.999 12.996 5.182 L 13.005 7.365 13.089 7.611 C 13.256 8.105,13.656 8.567,14.113 8.792 C 14.535 9.000,14.524 8.999,16.881 8.999 L 18.988 9.000 18.996 11.287 L 19.005 13.575 19.086 13.748 C 19.131 13.844,19.234 13.987,19.318 14.068 C 19.797 14.534,20.602 14.384,20.902 13.774 L 20.985 13.605 20.993 10.667 C 21.000 8.165,20.994 7.689,20.956 7.468 C 20.855 6.882,20.629 6.364,20.278 5.915 C 20.008 5.568,16.246 1.821,15.990 1.644 C 15.469 1.283,14.975 1.096,14.341 1.020 C 14.039 0.984,6.126 0.986,5.718 1.022 M16.800 5.205 L 18.585 6.990 16.792 6.990 L 15.000 6.990 15.000 5.205 C 15.000 4.223,15.003 3.420,15.008 3.420 C 15.012 3.420,15.818 4.223,16.800 5.205 M16.762 15.031 C 16.585 15.075,16.433 15.164,16.294 15.304 C 16.012 15.586,15.990 15.704,15.990 16.980 L 15.990 17.997 14.872 18.006 L 13.755 18.015 13.590 18.093 C 13.405 18.180,13.193 18.378,13.111 18.538 C 12.809 19.134,13.167 19.854,13.827 19.979 C 13.916 19.996,14.436 20.010,14.989 20.010 L 15.990 20.010 15.990 21.011 C 15.990 21.564,16.004 22.084,16.021 22.173 C 16.124 22.719,16.633 23.076,17.172 22.978 C 17.271 22.960,17.400 22.920,17.460 22.890 C 17.622 22.807,17.820 22.595,17.907 22.410 L 17.985 22.245 17.994 21.127 L 18.002 20.010 19.001 20.010 C 20.286 20.010,20.415 19.987,20.699 19.705 C 21.207 19.199,21.048 18.390,20.380 18.082 C 20.240 18.017,20.200 18.015,19.117 18.006 L 18.000 17.997 18.000 16.926 C 17.999 15.754,17.991 15.683,17.824 15.440 C 17.600 15.115,17.136 14.937,16.762 15.031 " stroke="none" fill-rule="evenodd" fill="black" /></svg>
