<svg xmlns="http://www.w3.org/2000/svg" viewBox="0 0 24 24" width="24" height="24"><path d="M3.390 2.068 C 2.302 2.298,1.406 3.134,1.113 4.194 C 0.988 4.649,0.987 4.719,0.997 11.700 C 1.008 19.095,0.993 18.520,1.188 19.042 C 1.571 20.067,2.501 20.815,3.586 20.969 C 3.760 20.994,5.869 21.000,11.385 20.994 L 18.945 20.985 19.200 20.914 C 19.511 20.828,19.878 20.661,20.134 20.489 C 20.598 20.176,21.054 19.618,21.239 19.137 C 21.314 18.943,22.837 13.089,22.946 12.576 C 23.076 11.966,22.974 11.232,22.676 10.641 C 22.382 10.058,21.827 9.532,21.224 9.268 L 21.006 9.172 20.992 8.343 C 20.980 7.562,20.974 7.499,20.900 7.239 C 20.744 6.690,20.473 6.227,20.095 5.863 C 19.691 5.474,19.331 5.269,18.735 5.091 C 18.529 5.029,18.465 5.028,15.195 5.011 C 11.525 4.993,11.758 5.006,11.492 4.810 C 11.346 4.702,11.320 4.669,10.974 4.155 C 10.411 3.319,10.188 3.024,9.956 2.808 C 9.676 2.549,9.330 2.336,8.970 2.200 C 8.461 2.009,8.475 2.010,5.940 2.012 C 3.852 2.014,3.622 2.019,3.390 2.068 M8.310 4.083 C 8.565 4.203,8.644 4.287,9.004 4.825 C 9.577 5.679,9.817 6.001,10.017 6.184 C 10.447 6.578,10.959 6.838,11.520 6.946 C 11.708 6.983,12.261 6.990,14.850 6.990 C 16.843 6.990,18.023 7.002,18.146 7.021 C 18.251 7.039,18.391 7.080,18.456 7.113 C 18.621 7.197,18.814 7.398,18.902 7.576 C 18.971 7.718,18.975 7.756,18.984 8.362 L 18.993 8.999 13.899 9.007 L 8.805 9.015 8.575 9.081 C 7.779 9.308,7.088 9.819,6.717 10.457 C 6.516 10.803,5.102 13.546,5.052 13.688 C 4.990 13.863,4.999 14.158,5.072 14.352 C 5.153 14.570,5.360 14.796,5.574 14.901 C 5.721 14.973,5.781 14.985,6.000 14.985 C 6.218 14.984,6.280 14.972,6.426 14.901 C 6.728 14.753,6.788 14.659,7.650 12.987 C 8.537 11.266,8.580 11.202,8.920 11.074 L 9.094 11.009 14.694 11.017 L 20.295 11.025 20.441 11.100 C 20.639 11.201,20.861 11.450,20.941 11.663 C 20.992 11.797,21.003 11.878,20.992 12.030 C 20.971 12.320,19.430 18.300,19.327 18.489 C 19.223 18.681,19.025 18.853,18.821 18.929 C 18.658 18.990,18.625 18.990,11.235 18.990 L 3.812 18.990 3.640 18.926 C 3.422 18.844,3.206 18.644,3.098 18.424 L 3.015 18.255 3.015 11.505 L 3.015 4.755 3.093 4.590 C 3.235 4.292,3.510 4.075,3.812 4.023 C 3.903 4.008,4.890 3.998,6.060 4.000 L 8.145 4.005 8.310 4.083 " stroke="none" fill-rule="evenodd" fill="black" /></svg>
