<svg xmlns="http://www.w3.org/2000/svg" viewBox="0 0 24 24" width="24" height="24"><path d="M11.718 1.023 C 10.571 1.120,9.513 1.951,9.165 3.030 C 9.136 3.121,9.110 3.198,9.107 3.201 C 9.105 3.205,8.999 3.175,8.873 3.136 C 7.356 2.668,5.698 3.504,5.177 4.998 C 5.006 5.490,5.010 5.399,5.010 8.801 L 5.010 11.934 4.784 11.862 C 4.451 11.756,4.169 11.722,3.766 11.737 C 3.028 11.765,2.385 12.035,1.849 12.540 C 0.745 13.580,0.583 15.216,1.460 16.467 C 1.602 16.669,4.618 19.722,5.425 20.480 C 6.925 21.889,8.241 22.547,10.215 22.876 C 10.726 22.961,11.212 22.986,12.585 23.001 C 14.464 23.021,15.106 22.980,15.967 22.783 C 17.911 22.339,19.631 21.291,20.892 19.782 C 22.135 18.295,22.839 16.546,22.979 14.595 C 23.020 14.025,23.020 8.015,22.979 7.679 C 22.749 5.796,20.937 4.599,19.125 5.135 C 19.009 5.169,18.910 5.196,18.903 5.195 C 18.896 5.194,18.859 5.103,18.821 4.992 C 18.300 3.503,16.641 2.669,15.127 3.136 C 15.001 3.175,14.895 3.205,14.893 3.201 C 14.890 3.198,14.864 3.121,14.835 3.030 C 14.496 1.979,13.423 1.116,12.354 1.034 C 12.234 1.025,12.101 1.013,12.060 1.009 C 12.019 1.004,11.865 1.011,11.718 1.023 M12.445 3.112 C 12.649 3.215,12.849 3.436,12.928 3.648 C 12.989 3.810,12.990 3.859,12.990 6.912 C 12.990 8.888,13.001 10.070,13.021 10.173 C 13.124 10.719,13.633 11.076,14.172 10.978 C 14.271 10.960,14.400 10.920,14.460 10.890 C 14.622 10.807,14.820 10.595,14.907 10.410 L 14.985 10.245 15.000 7.995 L 15.015 5.745 15.099 5.574 C 15.205 5.357,15.430 5.153,15.654 5.069 C 16.011 4.935,16.427 5.026,16.700 5.298 C 16.862 5.460,16.940 5.616,16.979 5.854 C 16.998 5.975,17.010 6.991,17.010 8.616 C 17.010 11.173,17.010 11.189,17.074 11.360 C 17.156 11.578,17.356 11.794,17.576 11.902 C 17.801 12.013,18.177 12.020,18.397 11.919 C 18.595 11.828,18.820 11.607,18.904 11.421 L 18.975 11.265 18.990 9.525 L 19.005 7.785 19.089 7.605 C 19.292 7.171,19.707 6.952,20.184 7.026 C 20.485 7.074,20.765 7.292,20.907 7.590 L 20.985 7.755 20.985 11.160 C 20.985 14.800,20.985 14.791,20.832 15.510 C 20.460 17.250,19.359 18.850,17.852 19.844 C 16.898 20.472,15.781 20.864,14.640 20.971 C 14.071 21.024,11.162 20.993,10.727 20.930 C 9.321 20.724,8.374 20.334,7.386 19.552 C 7.259 19.452,6.239 18.457,5.120 17.342 C 3.631 15.859,3.064 15.275,3.005 15.165 C 2.934 15.031,2.925 14.983,2.925 14.715 C 2.925 14.381,2.967 14.263,3.165 14.044 C 3.449 13.730,3.971 13.638,4.361 13.835 C 4.437 13.873,4.856 14.267,5.452 14.861 C 6.539 15.944,6.567 15.965,6.960 15.984 C 7.261 15.999,7.474 15.920,7.682 15.718 C 7.896 15.510,7.991 15.288,7.991 15.000 C 7.991 14.641,7.915 14.509,7.410 13.997 L 6.990 13.571 6.990 9.808 C 6.990 7.362,7.001 5.978,7.021 5.854 C 7.101 5.365,7.463 5.038,7.950 5.015 C 8.359 4.996,8.710 5.202,8.896 5.570 L 8.985 5.745 9.000 8.250 L 9.015 10.755 9.098 10.924 C 9.398 11.534,10.203 11.684,10.682 11.218 C 10.766 11.137,10.869 10.994,10.914 10.898 L 10.995 10.725 11.010 7.230 C 11.025 3.739,11.025 3.735,11.089 3.596 C 11.217 3.320,11.495 3.087,11.764 3.031 C 11.974 2.987,12.264 3.021,12.445 3.112 " stroke="none" fill-rule="evenodd" fill="black" /></svg>
