<svg xmlns="http://www.w3.org/2000/svg" viewBox="0 0 24 24" width="24" height="24"><path d="M2.730 2.036 C 2.466 2.123,2.222 2.330,2.097 2.574 L 2.025 2.715 2.025 5.505 L 2.025 8.295 2.097 8.436 C 2.197 8.632,2.384 8.814,2.580 8.907 L 2.745 8.985 5.439 8.993 C 8.426 9.002,8.308 9.009,8.585 8.806 C 9.175 8.373,9.118 7.501,8.475 7.124 C 8.278 7.008,8.042 6.991,6.690 6.989 L 5.415 6.987 5.820 6.595 C 6.698 5.744,7.554 5.159,8.554 4.728 C 9.686 4.240,10.770 4.017,12.016 4.017 C 13.106 4.016,14.105 4.210,15.043 4.603 C 17.735 5.732,19.582 8.157,19.936 11.027 C 19.997 11.521,19.997 12.458,19.936 12.966 C 19.591 15.859,17.668 18.353,14.946 19.438 C 13.998 19.815,13.059 19.992,12.000 19.992 C 11.347 19.992,11.052 19.964,10.426 19.841 C 7.334 19.236,4.860 16.799,4.184 13.693 C 4.094 13.277,4.020 12.691,4.019 12.376 C 4.018 12.026,3.970 11.712,3.896 11.563 C 3.810 11.391,3.621 11.203,3.435 11.105 C 3.303 11.035,3.250 11.025,3.000 11.025 C 2.750 11.025,2.697 11.035,2.565 11.105 C 2.376 11.204,2.191 11.390,2.098 11.574 C 1.924 11.914,2.015 13.271,2.284 14.370 C 3.297 18.509,6.839 21.564,11.085 21.959 C 11.509 21.999,12.491 21.999,12.915 21.959 C 17.706 21.513,21.513 17.706,21.959 12.915 C 21.999 12.491,21.999 11.509,21.959 11.085 C 21.633 7.586,19.506 4.526,16.335 2.997 C 15.007 2.357,13.786 2.062,12.300 2.021 C 11.003 1.985,9.866 2.150,8.670 2.550 C 7.025 3.098,5.750 3.880,4.456 5.135 L 3.992 5.584 3.984 4.150 L 3.975 2.715 3.903 2.574 C 3.808 2.389,3.622 2.203,3.435 2.107 C 3.318 2.047,3.232 2.028,3.045 2.021 C 2.913 2.016,2.771 2.023,2.730 2.036 M11.764 6.031 C 11.474 6.091,11.183 6.349,11.073 6.643 L 11.009 6.816 11.017 9.550 L 11.025 12.285 11.100 12.432 C 11.265 12.756,11.269 12.759,13.497 13.873 C 14.629 14.440,15.629 14.925,15.719 14.952 C 16.277 15.117,16.826 14.793,16.969 14.213 C 17.025 13.984,17.002 13.791,16.891 13.553 C 16.762 13.279,16.700 13.242,14.796 12.285 L 13.005 11.385 12.990 9.060 L 12.975 6.735 12.904 6.579 C 12.822 6.398,12.614 6.191,12.420 6.097 C 12.264 6.022,11.954 5.991,11.764 6.031 " stroke="none" fill-rule="evenodd" fill="black" /></svg>
