<svg xmlns="http://www.w3.org/2000/svg" viewBox="0 0 24 24" width="24" height="24"><path d="M11.325 1.022 C 7.192 1.204,3.453 3.374,1.860 6.512 C 0.730 8.738,0.710 11.146,1.801 13.365 C 1.931 13.629,2.124 13.980,2.231 14.145 L 2.426 14.445 2.308 14.685 C 2.244 14.817,2.154 15.046,2.110 15.195 C 2.034 15.444,2.028 15.506,2.027 15.990 C 2.027 16.571,2.049 16.696,2.240 17.160 C 2.524 17.849,3.137 18.467,3.818 18.751 C 3.987 18.822,4.055 18.866,4.064 18.912 C 4.072 18.947,4.093 19.056,4.112 19.155 C 4.344 20.390,5.053 21.629,6.015 22.481 C 6.371 22.796,6.595 22.938,6.802 22.981 C 7.475 23.121,8.112 22.498,7.980 21.829 C 7.918 21.514,7.856 21.424,7.480 21.102 C 6.993 20.686,6.630 20.216,6.377 19.674 C 6.261 19.427,6.090 18.920,6.090 18.825 C 6.090 18.807,6.134 18.776,6.188 18.757 C 6.362 18.693,6.730 18.460,6.951 18.273 L 7.166 18.090 7.416 18.183 C 9.661 19.022,12.259 19.219,14.655 18.732 C 17.624 18.129,20.144 16.547,21.627 14.355 C 22.725 12.733,23.181 10.863,22.931 9.015 C 22.740 7.606,22.156 6.269,21.206 5.064 C 20.898 4.674,20.155 3.934,19.725 3.589 C 18.078 2.267,15.976 1.402,13.710 1.112 C 13.300 1.059,12.114 0.982,11.910 0.995 C 11.869 0.997,11.606 1.009,11.325 1.022 M13.275 3.074 C 15.537 3.332,17.526 4.213,19.001 5.611 C 19.737 6.309,20.404 7.333,20.700 8.220 C 21.170 9.628,21.067 11.135,20.408 12.473 C 19.866 13.576,18.936 14.596,17.790 15.347 C 16.654 16.091,15.310 16.602,13.860 16.842 C 13.126 16.963,12.757 16.992,11.985 16.989 C 10.675 16.984,9.577 16.808,8.421 16.416 L 8.004 16.275 7.994 15.930 C 7.953 14.613,7.088 13.489,5.833 13.125 C 5.344 12.984,4.693 12.978,4.204 13.112 C 4.082 13.145,3.979 13.168,3.975 13.164 C 3.908 13.079,3.620 12.554,3.521 12.335 C 2.500 10.080,3.011 7.615,4.890 5.728 C 5.325 5.291,5.627 5.043,6.150 4.695 C 7.660 3.689,9.391 3.141,11.445 3.018 C 11.797 2.996,12.891 3.030,13.275 3.074 M5.415 15.101 C 5.620 15.195,5.806 15.382,5.905 15.596 C 6.016 15.835,6.017 16.174,5.906 16.410 C 5.820 16.595,5.623 16.807,5.460 16.890 C 5.289 16.977,5.018 17.016,4.829 16.980 C 4.028 16.828,3.731 15.850,4.313 15.282 C 4.602 15.002,5.041 14.930,5.415 15.101 " stroke="none" fill-rule="evenodd" fill="black" /></svg>
