<svg xmlns="http://www.w3.org/2000/svg" viewBox="0 0 24 24" width="24" height="24"><path d="M11.729 1.023 C 11.423 1.048,11.132 1.118,10.863 1.229 C 10.558 1.356,2.357 5.091,2.085 5.228 C 1.802 5.369,1.417 5.734,1.270 6.000 C 0.715 7.004,1.088 8.263,2.091 8.771 C 2.441 8.948,10.772 12.734,10.982 12.812 C 11.607 13.042,12.326 13.052,12.960 12.841 C 13.146 12.778,21.348 9.065,21.863 8.810 C 22.176 8.655,22.395 8.483,22.569 8.257 C 23.165 7.484,23.159 6.508,22.554 5.735 C 22.396 5.532,22.180 5.361,21.909 5.224 C 21.684 5.111,13.413 1.344,13.137 1.229 C 12.886 1.125,12.606 1.055,12.359 1.034 C 12.252 1.025,12.124 1.014,12.075 1.010 C 12.026 1.005,11.870 1.011,11.729 1.023 M12.290 3.056 C 12.427 3.099,20.651 6.826,20.936 6.973 C 21.000 7.007,20.630 7.181,16.672 8.980 C 13.918 10.232,12.277 10.963,12.169 10.984 C 12.031 11.012,11.965 11.010,11.812 10.972 C 11.585 10.916,3.020 7.018,3.052 6.986 C 3.092 6.946,11.529 3.113,11.700 3.057 C 11.914 2.987,12.073 2.987,12.290 3.056 M1.673 11.055 C 1.513 11.114,1.314 11.258,1.218 11.383 C 1.061 11.590,1.009 11.752,1.010 12.030 C 1.014 12.758,1.430 13.441,2.070 13.768 C 2.483 13.980,10.842 17.764,11.052 17.835 C 11.679 18.045,12.315 18.050,12.930 17.848 C 13.103 17.791,21.317 14.074,21.861 13.807 C 22.555 13.465,22.985 12.789,22.990 12.030 C 22.992 11.816,22.980 11.748,22.913 11.604 C 22.818 11.396,22.625 11.197,22.424 11.099 C 22.208 10.993,21.886 10.982,21.647 11.072 C 21.317 11.196,21.052 11.527,21.011 11.867 L 20.993 12.015 16.714 13.957 C 14.360 15.026,12.376 15.920,12.304 15.945 C 12.120 16.008,11.854 16.002,11.664 15.930 C 11.576 15.898,9.596 15.003,7.262 13.942 L 3.020 12.013 2.981 11.824 C 2.881 11.333,2.481 11.007,1.986 11.012 C 1.876 11.013,1.735 11.033,1.673 11.055 M1.845 16.021 C 1.550 16.061,1.252 16.275,1.113 16.547 C 1.012 16.742,0.982 16.973,1.021 17.254 C 1.086 17.731,1.254 18.059,1.618 18.420 C 1.822 18.623,1.928 18.701,2.130 18.799 C 3.008 19.226,10.951 22.808,11.160 22.870 C 11.786 23.058,12.467 23.031,13.080 22.793 C 13.430 22.658,21.894 18.799,22.052 18.704 C 22.552 18.400,22.896 17.863,22.979 17.257 C 23.053 16.713,22.846 16.293,22.405 16.095 C 22.194 16.000,21.875 15.987,21.662 16.063 C 21.326 16.184,21.057 16.518,21.005 16.879 L 20.985 17.016 16.710 18.958 C 14.359 20.026,12.368 20.923,12.287 20.950 C 12.083 21.019,11.887 21.013,11.664 20.930 C 11.560 20.892,9.568 19.992,7.237 18.931 L 3.000 17.002 2.999 16.909 C 2.998 16.790,2.881 16.502,2.787 16.387 C 2.555 16.105,2.210 15.971,1.845 16.021 " stroke="none" fill-rule="evenodd" fill="black" /></svg>
