<svg xmlns="http://www.w3.org/2000/svg" viewBox="0 0 24 24" width="24" height="24"><path d="M11.745 1.009 C 11.374 1.044,10.996 1.148,10.695 1.298 C 10.421 1.435,2.049 6.233,1.860 6.362 C 1.509 6.601,1.225 6.981,1.089 7.393 C 1.020 7.601,1.009 7.685,1.009 7.995 C 1.009 8.304,1.020 8.389,1.089 8.595 C 1.236 9.040,1.536 9.437,1.896 9.668 C 2.109 9.804,10.502 14.611,10.695 14.707 C 11.473 15.095,12.527 15.095,13.305 14.707 C 13.496 14.612,21.891 9.804,22.104 9.668 C 22.464 9.438,22.764 9.039,22.911 8.595 C 22.980 8.389,22.991 8.304,22.991 7.995 C 22.991 7.685,22.980 7.601,22.911 7.393 C 22.775 6.981,22.490 6.601,22.140 6.362 C 21.963 6.242,13.596 1.444,13.321 1.305 C 13.110 1.199,12.875 1.118,12.630 1.066 C 12.418 1.022,11.936 0.990,11.745 1.009 M12.454 3.107 C 12.925 3.352,20.993 7.998,20.976 8.014 C 20.931 8.055,12.487 12.883,12.360 12.940 C 12.174 13.023,11.826 13.023,11.640 12.940 C 11.513 12.883,3.069 8.056,3.024 8.014 C 3.013 8.004,4.052 7.394,5.334 6.660 C 6.616 5.926,8.555 4.815,9.643 4.192 C 10.730 3.569,11.662 3.046,11.713 3.030 C 11.764 3.015,11.913 3.006,12.045 3.011 C 12.241 3.018,12.316 3.036,12.454 3.107 M3.721 13.325 C 3.580 13.366,1.993 14.261,1.777 14.422 C 1.423 14.685,1.166 15.088,1.046 15.570 C 0.923 16.061,1.026 16.635,1.317 17.074 C 1.476 17.315,1.716 17.560,1.908 17.679 C 2.180 17.847,10.469 22.589,10.650 22.680 C 11.495 23.106,12.496 23.109,13.335 22.687 C 13.583 22.563,21.877 17.813,22.113 17.660 C 22.462 17.434,22.773 17.024,22.911 16.607 C 22.980 16.399,22.991 16.315,22.991 16.005 C 22.991 15.696,22.980 15.611,22.911 15.405 C 22.770 14.978,22.497 14.605,22.154 14.369 C 21.902 14.196,20.417 13.372,20.283 13.330 C 20.014 13.248,19.664 13.305,19.424 13.471 C 18.912 13.823,18.860 14.599,19.321 15.009 C 19.399 15.078,19.810 15.329,20.233 15.567 L 21.004 15.999 20.919 16.051 C 20.435 16.349,12.480 20.880,12.347 20.935 C 12.109 21.031,11.790 21.018,11.563 20.902 C 11.427 20.833,3.027 16.027,3.007 16.006 C 3.002 16.002,3.344 15.804,3.768 15.567 C 4.191 15.329,4.601 15.078,4.679 15.009 C 5.140 14.599,5.088 13.823,4.576 13.471 C 4.345 13.312,3.983 13.250,3.721 13.325 " stroke="none" fill-rule="evenodd" fill="black" /></svg>
