<svg xmlns="http://www.w3.org/2000/svg" viewBox="0 0 24 24" width="24" height="24"><path d="M11.745 1.032 C 11.662 1.052,11.541 1.104,11.475 1.146 C 11.409 1.189,10.631 1.951,9.746 2.840 C 8.233 4.359,8.134 4.465,8.074 4.629 C 7.891 5.126,8.107 5.672,8.576 5.902 C 8.718 5.972,8.784 5.985,8.985 5.985 C 9.403 5.985,9.425 5.970,10.246 5.156 C 10.643 4.762,10.977 4.440,10.989 4.440 C 11.000 4.440,11.010 5.918,11.010 7.725 L 11.010 11.010 7.725 11.010 C 5.918 11.010,4.440 11.000,4.440 10.989 C 4.440 10.977,4.762 10.643,5.156 10.246 C 5.970 9.425,5.985 9.403,5.985 8.985 C 5.985 8.683,5.890 8.468,5.667 8.268 C 5.457 8.079,5.237 8.002,4.950 8.015 C 4.552 8.034,4.600 7.994,2.811 9.777 C 1.924 10.661,1.166 11.439,1.127 11.505 C 1.017 11.692,0.974 11.960,1.019 12.187 C 1.039 12.290,1.088 12.428,1.127 12.495 C 1.166 12.561,1.930 13.346,2.826 14.239 C 4.359 15.767,4.465 15.866,4.629 15.926 C 5.126 16.109,5.672 15.893,5.902 15.424 C 5.972 15.282,5.985 15.216,5.985 15.015 C 5.985 14.597,5.970 14.575,5.156 13.754 C 4.762 13.357,4.440 13.023,4.440 13.011 C 4.440 13.000,5.918 12.990,7.725 12.990 L 11.010 12.990 11.010 16.275 C 11.010 18.082,11.000 19.560,10.988 19.560 C 10.976 19.560,10.649 19.245,10.261 18.859 C 9.439 18.044,9.397 18.016,9.000 18.015 C 8.782 18.015,8.721 18.027,8.576 18.098 C 8.107 18.328,7.891 18.874,8.074 19.371 C 8.134 19.535,8.233 19.641,9.761 21.174 C 10.716 22.132,11.438 22.833,11.514 22.875 C 11.805 23.038,12.195 23.038,12.486 22.875 C 12.562 22.833,13.284 22.132,14.239 21.174 C 15.767 19.641,15.866 19.535,15.926 19.371 C 16.109 18.874,15.900 18.342,15.428 18.103 C 15.276 18.026,15.224 18.015,15.000 18.016 C 14.593 18.018,14.557 18.042,13.739 18.857 C 13.351 19.243,13.024 19.560,13.012 19.560 C 13.000 19.560,12.990 18.082,12.990 16.275 L 12.990 12.990 16.275 12.990 C 18.082 12.990,19.560 13.000,19.560 13.011 C 19.560 13.023,19.238 13.357,18.844 13.754 C 18.030 14.575,18.015 14.597,18.015 15.015 C 18.015 15.216,18.028 15.282,18.098 15.424 C 18.328 15.893,18.874 16.109,19.371 15.926 C 19.535 15.866,19.641 15.767,21.174 14.239 C 22.136 13.280,22.832 12.562,22.875 12.485 C 23.033 12.204,23.033 11.796,22.875 11.515 C 22.832 11.438,22.139 10.724,21.189 9.777 C 19.400 7.994,19.448 8.034,19.050 8.015 C 18.763 8.002,18.543 8.079,18.333 8.268 C 18.110 8.468,18.015 8.683,18.015 8.985 C 18.015 9.403,18.030 9.425,18.844 10.246 C 19.238 10.643,19.560 10.977,19.560 10.989 C 19.560 11.000,18.082 11.010,16.275 11.010 L 12.990 11.010 12.990 7.725 C 12.990 5.918,13.000 4.440,13.011 4.440 C 13.023 4.440,13.357 4.762,13.754 5.156 C 14.575 5.970,14.597 5.985,15.015 5.985 C 15.216 5.985,15.282 5.972,15.424 5.902 C 15.893 5.672,16.109 5.126,15.926 4.629 C 15.866 4.465,15.767 4.359,14.239 2.826 C 13.309 1.893,12.561 1.167,12.489 1.126 C 12.356 1.052,12.113 0.988,11.976 0.993 C 11.931 0.994,11.827 1.012,11.745 1.032 " stroke="none" fill-rule="evenodd" fill="black" /></svg>
