<svg xmlns="http://www.w3.org/2000/svg" viewBox="0 0 24 24" width="24" height="24"><path d="M19.590 1.024 C 19.023 1.069,18.457 1.288,17.990 1.640 C 17.888 1.717,16.947 2.635,15.899 3.680 L 13.994 5.580 13.634 5.216 C 13.195 4.772,12.898 4.545,12.499 4.350 C 11.592 3.905,10.544 3.882,9.626 4.287 C 9.143 4.500,8.894 4.693,8.155 5.428 C 7.414 6.165,7.339 6.269,7.241 6.682 C 7.136 7.130,7.270 7.638,7.586 7.988 L 7.687 8.100 7.572 8.243 C 7.385 8.475,6.783 9.065,6.527 9.268 C 5.514 10.068,4.475 10.498,2.610 10.891 C 2.213 10.975,1.966 11.044,1.841 11.105 C 1.379 11.331,1.062 11.792,1.004 12.323 C 0.980 12.544,1.050 12.885,1.169 13.125 C 1.225 13.237,1.567 13.678,2.077 14.296 C 2.527 14.841,4.216 16.890,5.830 18.849 C 8.010 21.494,8.811 22.445,8.942 22.546 C 9.536 23.003,10.369 23.091,11.020 22.764 C 11.413 22.567,12.286 21.862,13.109 21.078 C 14.520 19.732,15.730 18.230,16.397 16.997 C 16.536 16.739,16.540 16.735,16.632 16.754 C 16.867 16.803,17.122 16.804,17.319 16.758 C 17.733 16.661,17.807 16.607,18.557 15.857 C 19.410 15.004,19.616 14.715,19.829 14.077 C 20.057 13.393,20.067 12.696,19.858 12.014 C 19.671 11.403,19.401 10.983,18.827 10.411 L 18.421 10.007 20.365 8.056 C 22.332 6.082,22.447 5.955,22.661 5.529 C 23.001 4.852,23.087 4.070,22.902 3.345 C 22.841 3.106,22.665 2.694,22.536 2.490 C 21.896 1.473,20.797 0.926,19.590 1.024 M20.339 3.107 C 20.563 3.209,20.795 3.444,20.899 3.672 C 20.970 3.829,20.982 3.893,20.982 4.125 C 20.981 4.613,21.129 4.435,18.674 6.900 C 17.373 8.206,16.477 9.129,16.430 9.211 C 16.168 9.667,16.145 10.177,16.366 10.645 C 16.459 10.842,16.539 10.936,17.123 11.530 C 17.919 12.341,17.998 12.474,17.999 13.005 C 18.000 13.462,17.875 13.706,17.379 14.218 L 17.014 14.595 13.209 10.791 L 9.405 6.987 9.758 6.643 C 10.162 6.248,10.313 6.142,10.601 6.055 C 10.768 6.004,10.859 5.995,11.086 6.007 C 11.329 6.019,11.396 6.036,11.597 6.131 C 11.807 6.231,11.887 6.299,12.480 6.885 C 13.066 7.464,13.155 7.540,13.354 7.634 C 13.827 7.857,14.328 7.835,14.788 7.571 C 14.871 7.523,15.766 6.653,17.085 5.339 C 18.573 3.856,19.286 3.166,19.375 3.121 C 19.658 2.980,20.048 2.974,20.339 3.107 M12.039 12.444 L 14.944 15.349 14.883 15.503 C 14.787 15.745,14.561 16.183,14.379 16.477 C 14.225 16.726,14.208 16.743,14.134 16.726 C 13.990 16.690,4.697 14.158,4.601 14.127 C 4.530 14.105,4.374 13.936,3.961 13.436 C 3.661 13.072,3.420 12.770,3.425 12.766 C 3.431 12.762,3.543 12.734,3.675 12.706 C 4.654 12.493,5.931 12.016,6.645 11.597 C 7.447 11.125,7.898 10.772,8.580 10.078 C 8.869 9.785,9.112 9.544,9.120 9.542 C 9.128 9.541,10.442 10.847,12.039 12.444 M9.884 17.643 C 11.516 18.088,12.858 18.458,12.865 18.465 C 12.889 18.489,11.350 20.001,11.010 20.287 C 10.643 20.595,10.198 20.940,10.165 20.940 C 10.151 20.940,6.979 17.105,6.768 16.833 C 6.726 16.778,6.405 16.695,9.884 17.643 " stroke="none" fill-rule="evenodd" fill="black" /></svg>
