<svg xmlns="http://www.w3.org/2000/svg" viewBox="0 0 24 24" width="24" height="24"><path d="M5.827 1.024 C 5.611 1.059,5.447 1.148,5.277 1.323 C 5.080 1.526,5.001 1.742,5.016 2.040 C 5.038 2.465,4.884 2.289,7.786 5.191 C 9.497 6.902,10.454 7.838,10.538 7.882 C 10.811 8.025,11.189 8.028,11.460 7.890 C 11.943 7.643,12.141 6.980,11.871 6.510 C 11.838 6.452,11.384 5.976,10.863 5.452 L 9.915 4.499 10.666 3.749 C 11.308 3.110,11.430 3.000,11.506 3.000 C 11.583 3.000,12.055 3.461,15.292 6.698 C 19.542 10.947,19.129 10.461,18.785 10.805 L 18.580 11.010 11.029 11.010 L 3.478 11.010 3.513 10.942 C 3.532 10.905,4.219 10.200,5.040 9.375 C 6.438 7.969,6.536 7.864,6.596 7.701 C 6.779 7.205,6.570 6.672,6.098 6.433 C 5.947 6.356,5.892 6.345,5.670 6.345 C 5.234 6.345,5.296 6.295,3.554 8.046 C 1.908 9.701,1.806 9.819,1.502 10.418 C 0.846 11.715,0.834 13.234,1.470 14.522 C 1.808 15.205,1.923 15.337,4.063 17.486 C 6.220 19.653,6.528 19.946,6.931 20.215 C 8.322 21.144,10.078 21.256,11.557 20.510 C 11.961 20.307,12.250 20.110,12.583 19.810 C 12.733 19.676,14.591 17.826,16.714 15.700 C 20.920 11.487,20.729 11.694,20.903 11.168 C 20.973 10.960,20.981 10.888,20.981 10.500 C 20.981 10.112,20.973 10.040,20.903 9.832 C 20.729 9.306,20.914 9.507,16.774 5.360 C 14.684 3.268,12.894 1.497,12.795 1.426 C 12.391 1.137,12.024 1.018,11.520 1.015 C 11.014 1.011,10.678 1.107,10.290 1.367 C 10.174 1.444,9.773 1.820,9.301 2.293 L 8.506 3.089 7.546 2.133 C 6.966 1.556,6.537 1.153,6.464 1.116 C 6.356 1.062,6.284 1.044,6.045 1.008 C 6.012 1.003,5.914 1.010,5.827 1.024 M16.560 13.013 C 16.560 13.026,15.342 14.252,13.852 15.738 C 11.820 17.767,11.092 18.475,10.933 18.579 C 10.506 18.858,10.045 18.992,9.514 18.992 C 8.905 18.992,8.454 18.853,7.995 18.524 C 7.709 18.319,3.544 14.124,3.394 13.890 C 3.256 13.675,3.103 13.305,3.072 13.113 L 3.052 12.990 9.806 12.990 C 13.521 12.990,16.560 13.001,16.560 13.013 M19.671 15.554 C 19.395 15.660,19.161 15.890,19.071 16.146 C 19.045 16.217,18.990 16.390,18.948 16.530 C 18.822 16.951,18.705 17.117,18.133 17.685 C 17.616 18.199,17.478 18.373,17.297 18.743 C 17.069 19.210,16.997 19.564,17.018 20.122 C 17.036 20.608,17.113 20.913,17.327 21.348 C 17.858 22.426,19.103 23.115,20.281 22.983 C 20.980 22.904,21.566 22.638,22.056 22.175 C 22.723 21.546,23.080 20.600,22.983 19.715 C 22.892 18.876,22.523 18.256,21.667 17.505 C 21.370 17.244,21.146 16.865,21.003 16.385 C 20.954 16.219,20.893 16.045,20.869 15.998 C 20.809 15.882,20.585 15.679,20.425 15.597 C 20.260 15.511,19.846 15.488,19.671 15.554 M20.903 19.617 C 20.971 19.756,20.985 19.823,20.983 20.010 C 20.976 20.972,19.767 21.360,19.195 20.583 C 19.071 20.414,19.017 20.234,19.015 19.990 C 19.014 19.670,19.123 19.482,19.514 19.134 C 19.679 18.987,19.853 18.820,19.900 18.763 L 19.986 18.660 20.403 19.055 C 20.723 19.357,20.840 19.489,20.903 19.617 " stroke="none" fill-rule="evenodd" fill="black" /></svg>
