<svg xmlns="http://www.w3.org/2000/svg" viewBox="0 0 24 24" width="24" height="24"><path d="M11.460 1.023 C 7.444 1.204,3.824 3.605,2.085 7.242 C 1.524 8.415,1.189 9.611,1.046 10.950 C 0.999 11.394,0.999 12.606,1.046 13.050 C 1.189 14.389,1.524 15.585,2.085 16.758 C 3.606 19.938,6.589 22.208,10.062 22.828 C 10.845 22.968,11.967 23.040,12.499 22.984 C 13.202 22.909,13.777 22.625,14.256 22.113 C 14.508 21.843,14.682 21.566,14.811 21.225 C 14.961 20.830,14.985 20.692,14.982 20.220 C 14.980 19.837,14.970 19.753,14.898 19.515 C 14.779 19.122,14.648 18.871,14.345 18.458 C 14.197 18.256,14.061 18.048,14.043 17.996 C 14.001 17.876,14.001 17.659,14.042 17.510 C 14.087 17.350,14.349 17.086,14.505 17.043 C 14.583 17.022,15.073 17.010,15.900 17.010 C 17.180 17.010,17.620 16.988,18.086 16.902 C 20.533 16.447,22.435 14.542,22.904 12.077 C 23.096 11.068,22.988 9.618,22.633 8.437 C 22.263 7.205,21.693 6.118,20.885 5.100 C 20.590 4.730,19.686 3.826,19.311 3.528 C 17.422 2.025,15.029 1.122,12.708 1.034 C 12.475 1.026,12.211 1.014,12.120 1.009 C 12.029 1.005,11.732 1.011,11.460 1.023 M12.720 3.031 C 14.069 3.133,15.273 3.460,16.418 4.037 C 17.347 4.505,18.013 4.988,18.750 5.728 C 19.960 6.943,20.698 8.395,20.925 10.005 C 21.149 11.591,20.811 12.799,19.869 13.772 C 19.270 14.392,18.570 14.768,17.685 14.946 C 17.602 14.963,16.813 14.987,15.930 15.000 C 14.664 15.018,14.287 15.033,14.145 15.069 C 13.095 15.332,12.337 16.086,12.072 17.130 C 11.989 17.459,11.995 18.106,12.085 18.435 C 12.180 18.784,12.378 19.171,12.644 19.528 C 12.929 19.910,12.989 20.034,12.989 20.250 C 12.989 20.532,12.837 20.784,12.585 20.920 C 12.472 20.981,12.426 20.985,11.835 20.983 C 10.864 20.979,10.021 20.833,9.056 20.503 C 6.042 19.470,3.754 16.829,3.168 13.704 C 3.046 13.059,3.016 12.715,3.016 12.000 C 3.016 11.285,3.046 10.941,3.168 10.296 C 3.835 6.740,6.672 3.881,10.230 3.181 C 10.603 3.107,10.849 3.074,11.430 3.020 C 11.674 2.996,12.344 3.002,12.720 3.031 M13.171 5.030 C 12.711 5.128,12.264 5.523,12.092 5.985 C 11.893 6.519,12.027 7.132,12.434 7.547 C 13.024 8.150,13.976 8.149,14.567 7.547 C 15.231 6.869,15.116 5.797,14.321 5.247 C 14.088 5.087,13.904 5.032,13.560 5.023 C 13.387 5.018,13.212 5.022,13.171 5.030 M8.159 6.041 C 7.417 6.201,6.891 6.980,7.018 7.731 C 7.166 8.604,8.024 9.173,8.864 8.954 C 9.226 8.860,9.556 8.617,9.781 8.280 C 10.062 7.859,10.062 7.141,9.781 6.720 C 9.407 6.159,8.796 5.904,8.159 6.041 M17.159 9.041 C 16.417 9.201,15.891 9.980,16.018 10.731 C 16.166 11.604,17.024 12.173,17.864 11.954 C 18.355 11.826,18.784 11.424,18.930 10.954 C 19.053 10.561,18.989 10.032,18.781 9.720 C 18.407 9.159,17.796 8.904,17.159 9.041 M6.093 11.057 C 5.617 11.185,5.213 11.583,5.066 12.067 C 5.013 12.240,5.005 12.329,5.016 12.584 C 5.028 12.862,5.041 12.915,5.140 13.124 C 5.220 13.294,5.305 13.411,5.452 13.558 C 5.689 13.793,5.893 13.902,6.227 13.970 C 7.239 14.178,8.178 13.239,7.970 12.227 C 7.902 11.895,7.793 11.689,7.562 11.457 C 7.355 11.249,7.137 11.118,6.885 11.051 C 6.691 10.999,6.299 11.002,6.093 11.057 " stroke="none" fill-rule="evenodd" fill="black" /></svg>
