<svg xmlns="http://www.w3.org/2000/svg" viewBox="0 0 24 24" width="24" height="24"><path d="M18.868 1.022 C 18.168 1.071,17.502 1.323,16.885 1.772 C 16.562 2.007,3.047 15.536,2.816 15.855 C 2.636 16.104,2.528 16.314,2.420 16.620 C 2.207 17.228,1.038 21.160,1.012 21.360 C 0.986 21.555,0.990 21.618,1.046 21.839 C 1.081 21.978,1.154 22.165,1.208 22.254 C 1.333 22.463,1.631 22.742,1.836 22.842 C 2.064 22.953,2.403 23.019,2.625 22.994 C 2.724 22.982,3.784 22.677,4.980 22.316 C 7.276 21.622,7.515 21.545,7.755 21.426 C 8.210 21.200,8.135 21.272,15.199 14.209 C 20.104 9.305,22.096 7.294,22.227 7.115 C 22.458 6.799,22.599 6.547,22.730 6.216 C 23.271 4.849,22.970 3.285,21.961 2.211 C 21.160 1.359,20.065 0.939,18.868 1.022 M19.575 3.045 C 20.239 3.184,20.816 3.761,20.955 4.425 C 21.042 4.843,20.991 5.251,20.801 5.640 C 20.701 5.846,20.618 5.938,19.841 6.720 L 18.991 7.575 17.708 6.292 L 16.425 5.009 17.280 4.159 C 18.061 3.383,18.154 3.299,18.360 3.199 C 18.747 3.010,19.157 2.958,19.575 3.045 M12.308 14.259 C 9.408 17.160,6.981 19.566,6.915 19.605 C 6.789 19.679,3.307 20.747,3.280 20.720 C 3.261 20.701,4.307 17.243,4.371 17.116 C 4.395 17.066,6.801 14.639,9.715 11.723 L 15.015 6.420 16.297 7.702 L 17.580 8.985 12.308 14.259 " stroke="none" fill-rule="evenodd" fill="black" /></svg>
