<svg xmlns="http://www.w3.org/2000/svg" viewBox="0 0 24 24" width="24" height="24"><path d="M19.455 1.010 C 19.223 1.046,18.875 1.148,18.656 1.243 C 18.139 1.467,18.001 1.585,16.435 3.144 L 14.974 4.597 14.755 4.460 C 14.482 4.290,14.171 4.157,13.851 4.072 C 13.519 3.984,12.692 3.977,12.390 4.060 C 11.791 4.224,11.361 4.459,10.958 4.841 C 10.470 5.304,10.173 5.850,10.033 6.538 C 9.957 6.915,9.985 7.569,10.093 7.932 C 10.188 8.252,10.334 8.575,10.487 8.806 L 10.599 8.975 6.639 12.940 C 2.391 17.193,2.488 17.090,2.256 17.625 C 2.044 18.112,2.034 18.182,2.012 19.335 C 1.987 20.624,2.009 20.546,1.509 21.068 C 1.323 21.261,1.145 21.471,1.114 21.533 C 0.740 22.268,1.366 23.124,2.172 22.978 C 2.440 22.929,2.546 22.862,2.932 22.491 C 3.454 21.991,3.376 22.013,4.665 21.988 C 5.818 21.966,5.860 21.960,6.360 21.749 C 6.904 21.519,6.789 21.627,11.060 17.361 L 15.025 13.401 15.170 13.498 C 15.397 13.649,15.770 13.819,16.065 13.907 C 16.432 14.015,17.084 14.043,17.462 13.967 C 18.112 13.835,18.594 13.586,19.060 13.141 C 19.532 12.690,19.829 12.139,19.967 11.460 C 20.043 11.084,20.015 10.432,19.907 10.065 C 19.819 9.770,19.649 9.397,19.498 9.170 L 19.402 9.026 20.826 7.595 C 21.609 6.809,22.319 6.073,22.403 5.960 C 22.600 5.697,22.807 5.277,22.907 4.935 C 23.015 4.567,23.043 3.915,22.967 3.538 C 22.766 2.545,22.167 1.748,21.297 1.316 C 20.838 1.089,20.543 1.018,19.995 1.005 C 19.747 1.000,19.505 1.002,19.455 1.010 M20.361 3.091 C 20.811 3.296,21.068 3.770,20.999 4.268 C 20.951 4.617,20.967 4.598,19.007 6.570 C 17.593 7.992,17.156 8.449,17.099 8.565 C 17.036 8.693,17.025 8.758,17.025 9.000 C 17.025 9.376,17.078 9.478,17.506 9.927 C 17.865 10.304,17.961 10.461,17.999 10.732 C 18.050 11.096,17.930 11.447,17.669 11.701 C 17.342 12.019,16.928 12.099,16.470 11.933 C 16.316 11.877,16.163 11.731,14.245 9.817 C 12.030 7.606,12.051 7.630,12.001 7.270 C 11.898 6.515,12.515 5.896,13.269 6.002 C 13.540 6.039,13.696 6.135,14.073 6.494 C 14.522 6.922,14.624 6.975,15.000 6.975 C 15.242 6.975,15.307 6.964,15.435 6.901 C 15.551 6.844,16.008 6.407,17.430 4.993 C 18.857 3.574,19.308 3.144,19.419 3.091 C 19.709 2.954,20.061 2.954,20.361 3.091 M12.795 11.220 L 13.575 12.000 9.663 15.912 C 6.980 18.596,5.712 19.843,5.625 19.887 C 5.426 19.986,5.225 20.010,4.582 20.010 L 3.983 20.010 3.996 19.313 C 4.008 18.665,4.014 18.603,4.079 18.450 C 4.142 18.302,4.545 17.888,8.067 14.362 C 10.222 12.205,11.992 10.440,12.000 10.440 C 12.009 10.440,12.366 10.791,12.795 11.220 " stroke="none" fill-rule="evenodd" fill="black" /></svg>
