<svg xmlns="http://www.w3.org/2000/svg" viewBox="0 0 24 24" width="24" height="24"><path d="M11.827 4.025 C 11.739 4.039,11.612 4.078,11.544 4.113 C 11.356 4.209,11.144 4.443,11.072 4.636 C 11.011 4.800,11.010 4.838,11.010 7.906 L 11.010 11.009 7.867 11.017 L 4.725 11.025 4.576 11.098 C 4.090 11.337,3.871 11.923,4.088 12.398 C 4.193 12.627,4.420 12.847,4.636 12.928 C 4.800 12.989,4.838 12.990,7.906 12.990 L 11.010 12.990 11.010 16.094 C 11.010 19.162,11.011 19.200,11.072 19.364 C 11.153 19.580,11.373 19.807,11.602 19.912 C 11.846 20.024,12.154 20.024,12.398 19.912 C 12.627 19.807,12.847 19.580,12.928 19.364 C 12.989 19.200,12.990 19.162,12.990 16.094 L 12.990 12.990 16.094 12.990 C 19.162 12.990,19.200 12.989,19.364 12.928 C 19.580 12.847,19.807 12.627,19.912 12.398 C 20.023 12.155,20.024 11.845,19.913 11.604 C 19.818 11.397,19.625 11.197,19.424 11.098 L 19.275 11.025 16.133 11.017 L 12.990 11.009 12.990 7.905 C 12.990 4.932,12.988 4.794,12.933 4.651 C 12.762 4.202,12.315 3.949,11.827 4.025 " stroke="none" fill-rule="evenodd" fill="black" /></svg>
