<svg xmlns="http://www.w3.org/2000/svg" viewBox="0 0 24 24" width="24" height="24"><path d="M20.764 6.031 C 20.495 6.087,20.217 6.317,20.094 6.585 L 20.025 6.735 20.010 8.744 L 19.995 10.753 19.380 10.199 C 18.248 9.179,18.051 9.019,17.445 8.624 C 15.811 7.559,13.985 7.019,12.015 7.017 C 10.704 7.016,9.603 7.213,8.445 7.655 C 5.613 8.736,3.406 11.060,2.481 13.935 C 2.188 14.845,2.050 15.643,2.021 16.590 C 2.004 17.148,2.006 17.183,2.071 17.353 C 2.157 17.579,2.354 17.793,2.576 17.902 C 2.720 17.973,2.782 17.985,3.000 17.985 C 3.218 17.985,3.280 17.973,3.424 17.902 C 3.643 17.794,3.844 17.578,3.925 17.362 C 3.974 17.229,3.995 17.075,4.019 16.644 C 4.055 16.000,4.110 15.603,4.233 15.098 C 4.684 13.246,5.810 11.586,7.368 10.478 C 9.850 8.713,13.129 8.521,15.820 9.983 C 16.548 10.379,16.832 10.595,17.931 11.586 L 18.388 11.997 16.566 12.006 L 14.745 12.015 14.576 12.098 C 13.966 12.398,13.816 13.203,14.282 13.682 C 14.363 13.766,14.506 13.869,14.602 13.914 L 14.775 13.995 17.921 14.003 C 21.336 14.012,21.271 14.015,21.533 13.849 C 21.673 13.761,21.817 13.600,21.907 13.432 L 21.975 13.305 21.983 10.060 L 21.991 6.815 21.926 6.642 C 21.758 6.193,21.254 5.928,20.764 6.031 " stroke="none" fill-rule="evenodd" fill="black" /></svg>
