<svg xmlns="http://www.w3.org/2000/svg" viewBox="0 0 24 24" width="24" height="24"><path d="M4.455 2.054 C 3.309 2.267,2.414 3.110,2.080 4.290 C 2.027 4.477,2.025 4.799,2.025 12.000 C 2.025 19.201,2.027 19.523,2.080 19.710 C 2.395 20.826,3.174 21.605,4.290 21.920 C 4.477 21.973,4.799 21.975,12.000 21.975 C 19.201 21.975,19.523 21.973,19.710 21.920 C 20.826 21.605,21.605 20.826,21.920 19.710 C 21.972 19.524,21.975 19.258,21.975 13.905 L 21.975 8.295 21.891 8.025 C 21.775 7.652,21.605 7.311,21.395 7.032 C 21.288 6.890,20.381 5.963,19.136 4.723 C 16.930 2.526,16.872 2.474,16.377 2.259 C 16.252 2.204,16.043 2.130,15.912 2.092 L 15.675 2.025 10.170 2.020 C 5.762 2.016,4.623 2.023,4.455 2.054 M6.000 5.589 C 6.000 6.608,6.012 7.254,6.033 7.367 C 6.178 8.164,6.854 8.833,7.650 8.969 C 7.787 8.992,8.940 9.000,11.550 8.994 L 15.255 8.985 15.424 8.902 C 16.031 8.604,16.184 7.797,15.723 7.323 C 15.546 7.142,15.393 7.062,15.146 7.021 C 15.022 7.001,13.729 6.990,11.482 6.990 L 8.010 6.990 8.010 5.490 L 8.010 3.990 11.572 3.990 C 13.707 3.990,15.206 4.002,15.311 4.019 C 15.669 4.078,15.629 4.042,17.793 6.207 C 19.971 8.385,19.925 8.332,19.983 8.705 C 20.001 8.825,20.009 10.808,20.003 14.055 L 19.995 19.215 19.910 19.399 C 19.816 19.602,19.638 19.792,19.454 19.887 C 19.268 19.982,19.056 20.010,18.506 20.010 L 18.000 20.010 18.000 16.911 C 18.000 14.815,17.989 13.753,17.967 13.633 C 17.837 12.917,17.267 12.292,16.545 12.070 C 16.374 12.018,16.153 12.015,12.000 12.015 C 7.109 12.015,7.526 11.997,7.065 12.233 C 6.777 12.381,6.352 12.808,6.221 13.080 C 6.000 13.539,6.016 13.244,6.007 16.808 L 5.998 20.010 5.493 20.010 C 4.944 20.010,4.732 19.982,4.546 19.887 C 4.362 19.792,4.184 19.602,4.090 19.399 L 4.005 19.215 4.005 12.000 L 4.005 4.785 4.089 4.605 C 4.239 4.285,4.519 4.067,4.845 4.020 C 4.927 4.007,5.221 3.996,5.497 3.994 L 6.000 3.990 6.000 5.589 M15.990 17.010 L 15.990 20.010 12.000 20.010 L 8.010 20.010 8.010 17.010 L 8.010 14.010 12.000 14.010 L 15.990 14.010 15.990 17.010 " stroke="none" fill-rule="evenodd" fill="black" /></svg>
