<svg xmlns="http://www.w3.org/2000/svg" viewBox="0 0 24 24" width="24" height="24"><path d="M5.370 2.053 C 4.358 2.234,3.511 2.723,2.909 3.471 C 2.494 3.987,2.264 4.456,2.097 5.130 C 2.035 5.380,2.026 5.486,2.026 6.000 C 2.026 6.638,2.065 6.875,2.252 7.385 C 2.651 8.473,3.527 9.349,4.615 9.748 C 5.125 9.935,5.362 9.974,6.000 9.974 C 6.514 9.974,6.620 9.965,6.870 9.903 C 7.218 9.817,7.546 9.698,7.822 9.559 L 8.030 9.454 9.302 10.727 L 10.575 12.000 9.300 13.275 L 8.025 14.550 7.800 14.433 C 7.530 14.293,7.129 14.154,6.780 14.079 C 6.422 14.003,5.578 14.003,5.220 14.079 C 3.834 14.375,2.728 15.320,2.252 16.615 C 2.065 17.125,2.026 17.362,2.026 18.000 C 2.026 18.638,2.065 18.875,2.252 19.385 C 2.651 20.473,3.527 21.349,4.615 21.748 C 5.125 21.935,5.362 21.974,6.000 21.974 C 6.638 21.974,6.875 21.935,7.385 21.748 C 8.473 21.349,9.349 20.473,9.748 19.385 C 9.935 18.875,9.974 18.638,9.974 18.000 C 9.974 17.486,9.965 17.380,9.903 17.130 C 9.816 16.780,9.697 16.450,9.559 16.180 L 9.454 15.975 15.148 10.275 C 20.294 5.122,20.848 4.559,20.911 4.410 C 21.134 3.881,20.912 3.324,20.380 3.083 C 20.269 3.033,20.178 3.018,19.995 3.018 C 19.532 3.018,19.874 2.711,15.712 6.867 L 12.000 10.574 10.727 9.302 L 9.454 8.030 9.559 7.822 C 9.698 7.546,9.817 7.218,9.903 6.870 C 9.965 6.620,9.974 6.514,9.974 6.000 C 9.974 5.362,9.935 5.125,9.748 4.615 C 9.277 3.332,8.177 2.385,6.810 2.085 C 6.504 2.017,5.670 1.999,5.370 2.053 M6.503 4.067 C 7.158 4.214,7.782 4.839,7.936 5.507 C 7.997 5.767,7.997 6.231,7.937 6.489 C 7.781 7.162,7.203 7.749,6.508 7.938 C 6.248 8.009,5.752 8.009,5.491 7.938 C 4.799 7.749,4.218 7.160,4.063 6.489 C 4.003 6.231,4.003 5.767,4.064 5.507 C 4.187 4.975,4.602 4.466,5.131 4.200 C 5.512 4.007,6.016 3.959,6.503 4.067 M14.562 13.832 C 14.108 13.941,13.775 14.396,13.806 14.865 C 13.833 15.271,13.704 15.127,16.689 18.111 C 19.134 20.556,19.412 20.825,19.575 20.900 C 20.426 21.290,21.290 20.426,20.900 19.575 C 20.825 19.412,20.556 19.134,18.111 16.689 C 15.728 14.305,15.385 13.973,15.235 13.905 C 15.043 13.818,14.753 13.786,14.562 13.832 M6.503 16.067 C 7.158 16.214,7.782 16.839,7.936 17.507 C 7.997 17.767,7.997 18.231,7.937 18.489 C 7.782 19.159,7.199 19.750,6.508 19.938 C 6.248 20.009,5.752 20.009,5.491 19.938 C 4.799 19.749,4.218 19.160,4.063 18.489 C 4.003 18.231,4.003 17.767,4.064 17.507 C 4.187 16.975,4.602 16.466,5.131 16.200 C 5.512 16.007,6.016 15.959,6.503 16.067 " stroke="none" fill-rule="evenodd" fill="black" /></svg>
