<svg xmlns="http://www.w3.org/2000/svg" viewBox="0 0 24 24" width="24" height="24"><path d="M10.290 2.028 C 10.232 2.034,10.057 2.054,9.900 2.072 C 8.561 2.223,7.175 2.736,6.015 3.512 C 5.136 4.099,4.280 4.924,3.683 5.760 C 2.948 6.789,2.425 7.992,2.177 9.230 C 2.043 9.893,2.025 10.114,2.026 11.025 C 2.027 12.020,2.071 12.401,2.278 13.212 C 2.718 14.933,3.684 16.533,4.980 17.685 C 5.906 18.508,6.780 19.033,7.935 19.459 C 10.363 20.356,13.158 20.124,15.429 18.836 C 15.730 18.666,16.334 18.264,16.500 18.123 L 16.605 18.034 18.510 19.931 C 19.984 21.398,20.449 21.844,20.565 21.901 C 20.692 21.964,20.758 21.975,21.000 21.975 C 21.334 21.975,21.482 21.916,21.699 21.699 C 21.916 21.482,21.975 21.334,21.975 21.000 C 21.975 20.758,21.964 20.692,21.901 20.565 C 21.844 20.449,21.398 19.984,19.931 18.510 L 18.034 16.605 18.123 16.500 C 18.172 16.443,18.317 16.240,18.446 16.050 C 20.342 13.255,20.516 9.624,18.894 6.677 C 17.671 4.455,15.549 2.835,13.095 2.249 C 12.422 2.089,11.966 2.036,11.145 2.025 C 10.732 2.020,10.348 2.021,10.290 2.028 M11.568 4.034 C 12.417 4.078,13.427 4.370,14.274 4.817 C 15.993 5.723,17.296 7.374,17.773 9.247 C 17.934 9.880,17.982 10.278,17.983 10.980 C 17.984 11.833,17.886 12.472,17.642 13.200 C 16.757 15.849,14.424 17.703,11.640 17.972 C 11.193 18.015,10.414 17.993,9.960 17.925 C 8.749 17.742,7.555 17.213,6.585 16.431 C 6.258 16.167,5.670 15.556,5.411 15.210 C 4.770 14.356,4.315 13.329,4.127 12.315 C 3.944 11.330,3.982 10.187,4.230 9.224 C 4.908 6.597,7.118 4.567,9.801 4.108 C 10.190 4.042,10.841 3.993,11.115 4.009 C 11.197 4.014,11.401 4.025,11.568 4.034 " stroke="none" fill-rule="evenodd" fill="black" /></svg>
