<svg xmlns="http://www.w3.org/2000/svg" viewBox="0 0 24 24" width="24" height="24"><path d="M11.670 1.034 C 11.645 1.040,11.524 1.061,11.400 1.081 C 10.672 1.197,9.892 1.654,9.422 2.237 C 9.001 2.760,8.809 3.217,8.673 4.014 C 8.606 4.413,8.517 4.613,8.305 4.845 C 8.125 5.042,7.817 5.205,7.532 5.255 C 7.289 5.297,7.056 5.258,6.694 5.114 C 6.237 4.932,6.003 4.884,5.490 4.869 C 5.098 4.857,4.977 4.864,4.722 4.917 C 2.837 5.305,1.658 7.207,2.162 9.045 C 2.362 9.773,2.757 10.355,3.399 10.867 C 3.833 11.214,4.003 11.531,4.003 12.000 C 4.003 12.466,3.833 12.786,3.402 13.131 C 2.926 13.513,2.623 13.873,2.404 14.318 C 1.926 15.290,1.927 16.368,2.407 17.323 C 2.837 18.178,3.653 18.828,4.590 19.060 C 5.306 19.238,5.963 19.179,6.735 18.870 C 7.307 18.640,7.849 18.722,8.252 19.100 C 8.498 19.330,8.615 19.571,8.672 19.963 C 8.742 20.453,8.831 20.749,9.020 21.134 C 9.545 22.200,10.632 22.910,11.835 22.971 C 13.245 23.043,14.569 22.201,15.089 20.902 C 15.203 20.617,15.260 20.398,15.315 20.034 C 15.370 19.672,15.452 19.451,15.598 19.266 C 15.753 19.069,15.883 18.965,16.095 18.867 C 16.461 18.696,16.833 18.698,17.271 18.873 C 17.800 19.084,18.116 19.150,18.600 19.151 C 19.007 19.151,19.296 19.106,19.665 18.983 C 20.158 18.819,20.588 18.556,20.951 18.196 C 21.994 17.164,22.247 15.641,21.596 14.318 C 21.376 13.871,21.088 13.528,20.614 13.148 C 20.168 12.789,19.997 12.472,19.997 12.000 C 19.997 11.531,20.167 11.214,20.601 10.867 C 20.949 10.590,21.207 10.313,21.414 9.995 C 22.063 9.000,22.131 7.746,21.593 6.677 C 21.077 5.650,20.039 4.949,18.909 4.867 C 18.322 4.824,17.858 4.897,17.265 5.128 C 16.783 5.316,16.485 5.317,16.096 5.135 C 15.883 5.034,15.753 4.930,15.598 4.734 C 15.452 4.549,15.370 4.328,15.315 3.966 C 15.260 3.602,15.203 3.383,15.089 3.098 C 14.686 2.091,13.771 1.323,12.703 1.096 C 12.487 1.050,11.779 1.007,11.670 1.034 M12.540 3.139 C 12.866 3.294,13.144 3.584,13.247 3.877 C 13.272 3.947,13.318 4.163,13.350 4.356 C 13.478 5.144,13.774 5.744,14.294 6.272 C 14.702 6.688,15.239 6.999,15.827 7.161 C 16.098 7.235,16.173 7.243,16.650 7.244 C 17.244 7.245,17.458 7.205,18.001 6.987 C 18.474 6.797,18.820 6.800,19.224 6.997 C 19.427 7.097,19.698 7.360,19.797 7.555 C 19.994 7.940,19.997 8.397,19.807 8.775 C 19.692 9.004,19.605 9.103,19.320 9.330 C 18.445 10.028,17.992 10.938,17.993 12.000 C 17.994 13.065,18.446 13.973,19.324 14.673 C 19.682 14.958,19.829 15.165,19.906 15.491 C 19.985 15.827,19.948 16.148,19.797 16.445 C 19.696 16.643,19.419 16.913,19.219 17.006 C 18.788 17.209,18.493 17.207,17.967 16.999 C 17.444 16.793,17.093 16.730,16.560 16.750 C 16.035 16.769,15.677 16.851,15.255 17.051 C 14.204 17.549,13.545 18.445,13.350 19.644 C 13.318 19.837,13.272 20.053,13.247 20.123 C 13.144 20.416,12.865 20.709,12.545 20.860 C 12.357 20.950,12.325 20.955,12.000 20.955 C 11.676 20.955,11.643 20.949,11.460 20.862 C 11.136 20.707,10.879 20.440,10.760 20.137 C 10.732 20.066,10.689 19.877,10.665 19.717 C 10.600 19.300,10.511 18.985,10.377 18.695 C 9.953 17.777,9.161 17.110,8.173 16.840 C 7.903 16.766,7.825 16.758,7.350 16.757 C 6.754 16.755,6.543 16.795,5.995 17.015 C 5.518 17.206,5.201 17.204,4.781 17.006 C 4.581 16.913,4.304 16.643,4.203 16.445 C 4.052 16.148,4.015 15.827,4.094 15.491 C 4.171 15.164,4.318 14.959,4.680 14.670 C 5.379 14.112,5.794 13.442,5.960 12.603 C 6.018 12.308,6.018 11.692,5.960 11.397 C 5.794 10.559,5.390 9.903,4.693 9.343 C 4.395 9.103,4.309 9.005,4.193 8.775 C 3.794 7.983,4.279 7.030,5.164 6.869 C 5.434 6.820,5.653 6.854,6.039 7.005 C 6.564 7.210,6.909 7.270,7.455 7.250 C 8.010 7.230,8.326 7.152,8.805 6.916 C 9.184 6.729,9.457 6.531,9.740 6.239 C 10.232 5.731,10.515 5.147,10.648 4.361 C 10.682 4.161,10.730 3.941,10.754 3.873 C 10.845 3.616,11.122 3.307,11.385 3.172 C 11.611 3.055,11.735 3.030,12.045 3.039 C 12.309 3.046,12.369 3.058,12.540 3.139 M11.370 8.053 C 10.358 8.234,9.511 8.723,8.909 9.471 C 8.494 9.987,8.264 10.456,8.097 11.130 C 8.035 11.380,8.026 11.486,8.026 12.000 C 8.026 12.638,8.065 12.875,8.252 13.385 C 8.651 14.473,9.527 15.349,10.615 15.748 C 11.125 15.935,11.362 15.974,12.000 15.974 C 12.638 15.974,12.875 15.935,13.385 15.748 C 14.473 15.349,15.349 14.473,15.748 13.385 C 15.935 12.875,15.974 12.638,15.974 12.000 C 15.974 11.362,15.935 11.125,15.748 10.615 C 15.277 9.332,14.177 8.385,12.810 8.085 C 12.504 8.017,11.670 7.999,11.370 8.053 M12.503 10.067 C 13.158 10.214,13.782 10.839,13.936 11.507 C 13.997 11.767,13.997 12.231,13.937 12.489 C 13.782 13.159,13.199 13.750,12.508 13.938 C 12.248 14.009,11.752 14.009,11.491 13.938 C 10.799 13.749,10.218 13.160,10.063 12.489 C 10.003 12.231,10.003 11.767,10.064 11.507 C 10.187 10.975,10.602 10.466,11.131 10.200 C 11.512 10.007,12.016 9.959,12.503 10.067 " stroke="none" fill-rule="evenodd" fill="black" /></svg>
