<svg xmlns="http://www.w3.org/2000/svg" viewBox="0 0 24 24" width="24" height="24"><path d="M13.673 2.055 C 13.410 2.152,13.200 2.354,13.071 2.633 C 13.005 2.774,13.005 2.787,12.996 4.885 C 12.991 6.256,12.999 7.053,13.019 7.163 C 13.121 7.717,13.629 8.076,14.172 7.978 C 14.271 7.960,14.400 7.920,14.460 7.890 C 14.622 7.807,14.820 7.595,14.907 7.410 C 14.982 7.252,14.985 7.220,14.994 6.623 L 15.003 6.001 18.129 5.993 L 21.255 5.985 21.424 5.902 C 22.031 5.604,22.184 4.797,21.723 4.323 C 21.546 4.142,21.393 4.062,21.146 4.021 C 21.024 4.002,19.884 3.990,17.980 3.990 L 15.004 3.990 14.995 3.367 C 14.985 2.756,14.984 2.742,14.901 2.574 C 14.796 2.360,14.570 2.153,14.352 2.072 C 14.160 2.000,13.845 1.992,13.673 2.055 M2.827 4.023 C 2.610 4.060,2.447 4.149,2.277 4.323 C 1.816 4.797,1.969 5.604,2.576 5.902 L 2.745 5.985 6.495 5.985 L 10.245 5.985 10.410 5.907 C 10.595 5.820,10.807 5.622,10.890 5.460 C 10.920 5.400,10.960 5.271,10.978 5.172 C 11.059 4.723,10.826 4.287,10.399 4.090 L 10.215 4.005 6.600 4.001 C 4.587 3.998,2.915 4.008,2.827 4.023 M7.762 9.031 C 7.585 9.075,7.433 9.164,7.294 9.304 C 7.040 9.557,6.990 9.751,6.990 10.486 L 6.990 11.008 4.853 11.017 L 2.715 11.025 2.565 11.104 C 2.377 11.204,2.191 11.390,2.097 11.574 C 2.036 11.694,2.025 11.758,2.025 12.000 C 2.025 12.242,2.036 12.306,2.098 12.427 C 2.190 12.609,2.391 12.810,2.573 12.902 L 2.715 12.975 4.853 12.983 L 6.990 12.992 6.990 13.514 C 6.990 14.250,7.039 14.442,7.295 14.699 C 7.735 15.141,8.467 15.077,8.819 14.567 C 9.003 14.299,8.999 14.352,8.999 12.000 C 8.999 9.656,9.002 9.700,8.824 9.440 C 8.600 9.115,8.136 8.937,7.762 9.031 M11.730 11.038 C 11.473 11.117,11.222 11.330,11.097 11.574 C 11.036 11.694,11.025 11.758,11.025 12.000 C 11.025 12.242,11.036 12.306,11.098 12.427 C 11.190 12.609,11.391 12.810,11.573 12.902 L 11.715 12.975 16.500 12.975 L 21.285 12.975 21.427 12.902 C 21.609 12.810,21.810 12.609,21.902 12.427 C 21.964 12.306,21.975 12.242,21.975 12.000 C 21.975 11.758,21.964 11.694,21.903 11.574 C 21.809 11.390,21.623 11.204,21.435 11.104 L 21.285 11.025 16.545 11.020 C 13.938 11.017,11.771 11.025,11.730 11.038 M15.812 16.026 C 15.514 16.072,15.235 16.290,15.093 16.590 L 15.015 16.755 15.015 19.005 L 15.015 21.255 15.098 21.424 C 15.398 22.034,16.203 22.184,16.682 21.718 C 16.766 21.636,16.868 21.495,16.913 21.398 C 16.991 21.232,16.994 21.202,17.005 20.619 L 17.016 20.012 19.121 20.004 L 21.225 19.995 21.398 19.914 C 22.174 19.550,22.191 18.489,21.428 18.103 L 21.255 18.015 19.133 18.006 L 17.010 17.998 17.010 17.493 C 17.010 17.215,16.996 16.916,16.979 16.827 C 16.875 16.277,16.383 15.940,15.812 16.026 M2.764 18.032 C 2.477 18.089,2.184 18.348,2.074 18.641 C 1.887 19.141,2.112 19.684,2.602 19.914 L 2.775 19.995 7.500 19.995 L 12.225 19.995 12.398 19.914 C 13.174 19.550,13.191 18.489,12.428 18.103 L 12.255 18.015 7.575 18.011 C 5.001 18.008,2.836 18.018,2.764 18.032 " stroke="none" fill-rule="evenodd" fill="black" /></svg>
