<svg xmlns="http://www.w3.org/2000/svg" viewBox="0 0 24 24" width="24" height="24"><path d="M18.390 2.066 C 17.462 2.269,16.695 2.874,16.295 3.720 C 16.221 3.877,16.146 4.015,16.128 4.027 C 16.110 4.039,16.031 4.049,15.954 4.050 C 15.761 4.050,14.967 4.154,14.564 4.231 C 11.042 4.906,7.943 7.014,6.013 10.050 C 4.974 11.685,4.267 13.704,4.081 15.570 C 4.015 16.225,4.064 16.132,3.696 16.311 C 2.925 16.685,2.362 17.353,2.109 18.195 C 2.035 18.443,2.028 18.507,2.027 18.990 C 2.027 19.571,2.049 19.696,2.240 20.160 C 2.528 20.859,3.141 21.472,3.840 21.760 C 4.306 21.952,4.428 21.974,5.010 21.972 C 5.490 21.971,5.558 21.964,5.805 21.890 C 6.634 21.643,7.316 21.074,7.681 20.325 C 8.098 19.471,8.102 18.548,7.693 17.687 C 7.489 17.257,7.082 16.786,6.689 16.526 C 6.564 16.443,6.243 16.273,6.036 16.182 C 6.019 16.174,6.124 15.335,6.183 15.015 C 6.705 12.173,8.310 9.674,10.695 7.989 C 11.956 7.098,13.465 6.467,15.015 6.183 C 15.337 6.124,16.172 6.019,16.183 6.036 C 16.186 6.041,16.227 6.133,16.273 6.240 C 16.531 6.833,17.093 7.411,17.687 7.693 C 18.548 8.102,19.471 8.098,20.325 7.681 C 21.074 7.316,21.643 6.634,21.890 5.805 C 21.964 5.558,21.971 5.490,21.972 5.010 C 21.974 4.428,21.952 4.306,21.760 3.840 C 21.416 3.006,20.652 2.342,19.755 2.099 C 19.408 2.006,18.741 1.989,18.390 2.066 M19.414 4.101 C 19.977 4.348,20.170 5.106,19.795 5.593 C 19.528 5.938,19.113 6.078,18.712 5.956 C 18.433 5.871,18.215 5.671,18.082 5.377 C 17.985 5.163,17.991 4.811,18.094 4.590 C 18.332 4.084,18.897 3.874,19.414 4.101 M5.415 18.101 C 5.620 18.195,5.806 18.382,5.905 18.596 C 6.016 18.835,6.017 19.174,5.906 19.410 C 5.820 19.595,5.623 19.807,5.460 19.890 C 5.289 19.977,5.018 20.016,4.829 19.980 C 4.028 19.828,3.731 18.850,4.313 18.282 C 4.602 18.002,5.041 17.930,5.415 18.101 " stroke="none" fill-rule="evenodd" fill="black" /></svg>
