<svg xmlns="http://www.w3.org/2000/svg" viewBox="0 0 24 24" width="24" height="24"><path d="M4.455 2.054 C 3.309 2.267,2.414 3.110,2.080 4.290 C 2.027 4.477,2.025 4.799,2.025 12.000 C 2.025 19.201,2.027 19.523,2.080 19.710 C 2.395 20.826,3.174 21.605,4.290 21.920 C 4.477 21.973,4.799 21.975,12.000 21.975 C 19.201 21.975,19.523 21.973,19.710 21.920 C 20.826 21.605,21.605 20.826,21.920 19.710 C 21.973 19.523,21.975 19.201,21.975 12.000 C 21.975 4.799,21.973 4.477,21.920 4.290 C 21.610 3.192,20.838 2.409,19.755 2.095 L 19.515 2.025 12.090 2.020 C 6.110 2.016,4.624 2.023,4.455 2.054 M19.395 4.089 C 19.629 4.198,19.805 4.373,19.910 4.601 L 19.995 4.785 19.995 12.000 L 19.995 19.215 19.910 19.399 C 19.767 19.709,19.502 19.917,19.173 19.979 C 18.950 20.022,5.050 20.022,4.827 19.979 C 4.498 19.917,4.233 19.709,4.090 19.399 L 4.005 19.215 4.005 12.000 L 4.005 4.785 4.089 4.605 C 4.238 4.285,4.519 4.068,4.845 4.019 C 4.927 4.007,8.194 3.999,12.105 4.001 L 19.215 4.005 19.395 4.089 " stroke="none" fill="black" fill-rule="evenodd" /></svg>
