<svg xmlns="http://www.w3.org/2000/svg" viewBox="0 0 24 24" width="24" height="24"><path d="M4.455 2.054 C 3.669 2.199,2.951 2.675,2.506 3.345 C 2.198 3.808,2.044 4.273,2.020 4.815 C 2.005 5.139,2.010 5.193,2.071 5.353 C 2.156 5.579,2.354 5.793,2.576 5.902 C 2.721 5.973,2.782 5.985,3.000 5.985 C 3.307 5.984,3.465 5.923,3.686 5.716 C 3.873 5.541,3.957 5.347,4.005 4.979 C 4.085 4.371,4.371 4.085,4.979 4.005 C 5.347 3.957,5.541 3.873,5.716 3.686 C 5.923 3.465,5.984 3.307,5.985 3.000 C 5.985 2.781,5.973 2.721,5.901 2.574 C 5.796 2.360,5.570 2.153,5.352 2.072 C 5.159 1.999,4.791 1.992,4.455 2.054 M8.730 2.037 C 8.471 2.119,8.222 2.330,8.097 2.574 C 8.036 2.694,8.025 2.758,8.025 3.000 C 8.025 3.242,8.036 3.306,8.098 3.427 C 8.190 3.609,8.391 3.810,8.573 3.902 C 8.710 3.972,8.741 3.975,9.451 3.984 C 10.321 3.995,10.419 3.974,10.682 3.718 C 11.092 3.318,11.102 2.700,10.704 2.303 C 10.632 2.231,10.506 2.139,10.424 2.098 C 10.279 2.027,10.253 2.025,9.540 2.019 C 9.136 2.016,8.771 2.024,8.730 2.037 M13.673 2.054 C 13.265 2.208,13.010 2.571,13.009 3.000 C 13.009 3.288,13.104 3.510,13.318 3.718 C 13.581 3.974,13.679 3.995,14.549 3.984 C 15.259 3.975,15.290 3.972,15.427 3.902 C 15.609 3.810,15.810 3.609,15.902 3.427 C 15.964 3.306,15.975 3.242,15.975 3.000 C 15.975 2.758,15.964 2.694,15.903 2.574 C 15.809 2.390,15.623 2.204,15.435 2.104 C 15.285 2.025,15.283 2.025,14.535 2.019 C 13.952 2.014,13.760 2.022,13.673 2.054 M18.639 2.071 C 18.427 2.156,18.202 2.365,18.099 2.574 C 18.027 2.721,18.015 2.781,18.015 3.000 C 18.016 3.307,18.077 3.465,18.284 3.686 C 18.459 3.873,18.653 3.957,19.021 4.005 C 19.629 4.085,19.915 4.371,19.995 4.979 C 20.043 5.347,20.127 5.541,20.314 5.716 C 20.535 5.923,20.693 5.984,21.000 5.985 C 21.218 5.985,21.279 5.973,21.424 5.902 C 21.646 5.793,21.844 5.579,21.929 5.353 C 21.990 5.193,21.995 5.139,21.980 4.815 C 21.930 3.721,21.274 2.763,20.244 2.281 C 19.878 2.110,19.577 2.038,19.155 2.022 C 18.841 2.011,18.775 2.017,18.639 2.071 M2.730 8.036 C 2.466 8.123,2.222 8.330,2.097 8.574 C 2.028 8.710,2.025 8.742,2.016 9.451 C 2.005 10.321,2.026 10.419,2.282 10.682 C 2.490 10.896,2.712 10.991,3.000 10.991 C 3.288 10.991,3.510 10.896,3.718 10.682 C 3.974 10.419,3.995 10.321,3.984 9.451 C 3.975 8.742,3.972 8.710,3.903 8.574 C 3.808 8.389,3.622 8.203,3.435 8.107 C 3.318 8.047,3.232 8.028,3.045 8.021 C 2.913 8.016,2.771 8.023,2.730 8.036 M20.730 8.036 C 20.466 8.123,20.222 8.330,20.097 8.574 C 20.028 8.710,20.025 8.742,20.016 9.451 C 20.005 10.321,20.026 10.419,20.282 10.682 C 20.490 10.896,20.712 10.991,21.000 10.991 C 21.288 10.991,21.510 10.896,21.718 10.682 C 21.974 10.419,21.995 10.321,21.984 9.451 C 21.975 8.742,21.972 8.710,21.903 8.574 C 21.808 8.389,21.622 8.203,21.435 8.107 C 21.318 8.047,21.232 8.028,21.045 8.021 C 20.913 8.016,20.771 8.023,20.730 8.036 M2.827 13.025 C 2.497 13.077,2.187 13.329,2.070 13.641 C 2.010 13.802,2.007 13.857,2.016 14.549 C 2.025 15.259,2.028 15.290,2.098 15.427 C 2.190 15.609,2.391 15.810,2.573 15.902 C 2.694 15.964,2.758 15.975,3.000 15.975 C 3.242 15.975,3.306 15.964,3.427 15.902 C 3.609 15.810,3.810 15.609,3.902 15.427 C 3.972 15.290,3.975 15.259,3.984 14.556 C 3.995 13.738,3.979 13.643,3.795 13.401 C 3.568 13.104,3.210 12.965,2.827 13.025 M20.827 13.025 C 20.497 13.077,20.187 13.329,20.070 13.641 C 20.010 13.802,20.007 13.857,20.016 14.549 C 20.025 15.259,20.028 15.290,20.098 15.427 C 20.190 15.609,20.391 15.810,20.573 15.902 C 20.694 15.964,20.758 15.975,21.000 15.975 C 21.334 15.975,21.482 15.916,21.699 15.699 C 21.771 15.628,21.862 15.505,21.902 15.427 C 21.972 15.290,21.975 15.259,21.984 14.556 C 21.995 13.738,21.979 13.643,21.795 13.401 C 21.568 13.104,21.210 12.965,20.827 13.025 M2.764 18.031 C 2.472 18.092,2.184 18.348,2.071 18.647 C 2.010 18.807,2.005 18.861,2.020 19.185 C 2.078 20.458,2.961 21.537,4.245 21.904 C 4.375 21.941,4.591 21.970,4.815 21.980 C 5.139 21.995,5.193 21.990,5.353 21.929 C 5.957 21.700,6.193 20.926,5.811 20.425 C 5.602 20.151,5.383 20.044,4.914 19.986 C 4.377 19.920,4.082 19.606,4.005 19.021 C 3.984 18.863,3.937 18.664,3.901 18.578 C 3.823 18.398,3.617 18.192,3.420 18.097 C 3.264 18.022,2.954 17.991,2.764 18.031 M20.764 18.031 C 20.478 18.091,20.183 18.349,20.078 18.632 C 20.044 18.722,20.007 18.896,19.996 19.020 C 19.958 19.420,19.763 19.728,19.446 19.891 C 19.375 19.928,19.214 19.970,19.086 19.986 C 18.617 20.044,18.398 20.151,18.189 20.425 C 17.807 20.926,18.043 21.700,18.647 21.929 C 18.807 21.990,18.861 21.995,19.185 21.980 C 20.458 21.922,21.537 21.039,21.904 19.755 C 21.941 19.625,21.970 19.409,21.980 19.185 C 21.995 18.861,21.990 18.807,21.929 18.647 C 21.757 18.192,21.256 17.927,20.764 18.031 M8.730 20.037 C 8.471 20.119,8.222 20.330,8.097 20.574 C 8.036 20.694,8.025 20.758,8.025 21.000 C 8.025 21.242,8.036 21.306,8.098 21.427 C 8.190 21.609,8.391 21.810,8.573 21.902 C 8.710 21.972,8.741 21.975,9.451 21.984 C 10.321 21.995,10.419 21.974,10.682 21.718 C 11.092 21.318,11.102 20.700,10.704 20.303 C 10.632 20.231,10.506 20.139,10.424 20.098 C 10.279 20.027,10.253 20.025,9.540 20.019 C 9.136 20.016,8.771 20.024,8.730 20.037 M13.673 20.054 C 13.265 20.208,13.010 20.571,13.009 21.000 C 13.009 21.288,13.104 21.510,13.318 21.718 C 13.581 21.974,13.679 21.995,14.549 21.984 C 15.259 21.975,15.290 21.972,15.427 21.902 C 15.609 21.810,15.810 21.609,15.902 21.427 C 15.964 21.306,15.975 21.242,15.975 21.000 C 15.975 20.758,15.964 20.694,15.903 20.574 C 15.809 20.390,15.623 20.204,15.435 20.104 C 15.285 20.025,15.283 20.025,14.535 20.019 C 13.952 20.014,13.760 20.022,13.673 20.054 " stroke="none" fill-rule="evenodd" fill="black" /></svg>
