<svg xmlns="http://www.w3.org/2000/svg" viewBox="0 0 24 24" width="24" height="24"><path d="M4.455 2.054 C 3.308 2.268,2.414 3.110,2.080 4.290 C 2.027 4.477,2.025 4.799,2.025 12.000 C 2.025 19.201,2.027 19.523,2.080 19.710 C 2.395 20.826,3.174 21.605,4.290 21.920 C 4.477 21.973,4.799 21.975,12.000 21.975 C 19.201 21.975,19.523 21.973,19.710 21.920 C 20.826 21.605,21.605 20.826,21.920 19.710 C 21.971 19.528,21.975 19.353,21.975 17.115 L 21.975 14.715 21.903 14.574 C 21.809 14.390,21.623 14.204,21.435 14.105 C 21.303 14.035,21.250 14.025,21.000 14.025 C 20.750 14.025,20.697 14.035,20.565 14.105 C 20.377 14.204,20.191 14.390,20.097 14.574 L 20.025 14.715 20.010 16.965 L 19.995 19.215 19.910 19.399 C 19.767 19.709,19.502 19.917,19.173 19.979 C 18.950 20.022,5.050 20.022,4.827 19.979 C 4.498 19.917,4.233 19.709,4.090 19.399 L 4.005 19.215 4.005 12.000 L 4.005 4.785 4.090 4.601 C 4.195 4.373,4.371 4.198,4.605 4.089 L 4.785 4.005 7.035 3.990 L 9.285 3.975 9.427 3.902 C 9.609 3.810,9.810 3.609,9.902 3.427 C 9.964 3.306,9.975 3.242,9.975 3.000 C 9.975 2.758,9.964 2.694,9.903 2.574 C 9.809 2.390,9.623 2.204,9.435 2.104 L 9.285 2.025 6.975 2.020 C 5.185 2.016,4.618 2.024,4.455 2.054 M12.639 2.071 C 12.426 2.156,12.201 2.365,12.099 2.574 C 12.027 2.721,12.015 2.781,12.015 3.000 C 12.015 3.218,12.027 3.280,12.098 3.424 C 12.206 3.644,12.422 3.844,12.640 3.926 C 12.774 3.976,12.925 3.996,13.328 4.019 C 14.378 4.077,15.168 4.277,16.065 4.711 C 17.843 5.571,19.212 7.210,19.738 9.107 C 19.871 9.585,19.949 10.086,19.981 10.672 C 20.004 11.075,20.024 11.226,20.074 11.360 C 20.156 11.578,20.356 11.794,20.576 11.902 C 20.720 11.973,20.782 11.985,21.000 11.985 C 21.218 11.985,21.280 11.973,21.424 11.902 C 21.644 11.794,21.844 11.578,21.926 11.360 C 22.070 10.974,21.973 9.755,21.719 8.772 C 21.308 7.176,20.542 5.838,19.367 4.663 C 18.844 4.140,18.517 3.867,17.985 3.512 C 16.589 2.579,14.994 2.066,13.350 2.023 C 12.839 2.010,12.783 2.013,12.639 2.071 " stroke="none" fill-rule="evenodd" fill="black" /></svg>
