<svg xmlns="http://www.w3.org/2000/svg" viewBox="0 0 24 24" width="24" height="24"><path d="M11.820 1.012 C 10.358 1.077,9.040 1.944,8.414 3.255 C 8.088 3.937,8.025 4.236,8.026 5.085 C 8.027 6.002,8.137 6.473,8.526 7.221 C 8.644 7.449,8.786 7.723,8.840 7.830 C 8.895 7.937,8.954 8.098,8.970 8.187 C 8.988 8.283,9.000 9.088,9.000 10.172 L 9.000 11.995 7.507 12.008 C 6.230 12.019,5.983 12.029,5.791 12.073 C 4.743 12.316,3.911 12.941,3.410 13.860 C 3.282 14.094,3.176 14.382,3.084 14.746 C 3.018 15.004,3.015 15.064,3.015 16.200 L 3.015 17.385 3.097 17.627 C 3.299 18.223,3.803 18.721,4.395 18.908 L 4.605 18.975 12.000 18.975 L 19.395 18.975 19.605 18.908 C 20.194 18.722,20.701 18.221,20.903 17.627 L 20.985 17.385 20.985 16.200 C 20.985 15.064,20.982 15.004,20.916 14.746 C 20.824 14.382,20.718 14.094,20.590 13.860 C 20.089 12.941,19.257 12.316,18.209 12.073 C 18.017 12.029,17.770 12.019,16.492 12.008 L 15.000 11.995 15.000 10.172 C 15.000 9.094,15.012 8.282,15.030 8.187 C 15.046 8.098,15.111 7.924,15.175 7.800 C 15.238 7.676,15.380 7.401,15.490 7.188 C 15.830 6.532,15.956 6.027,15.981 5.220 C 16.001 4.597,15.955 4.236,15.796 3.762 C 15.259 2.158,13.852 1.092,12.165 1.013 C 12.066 1.009,11.911 1.008,11.820 1.012 M12.414 3.047 C 13.234 3.213,13.899 3.943,13.977 4.765 C 13.989 4.889,13.989 5.142,13.976 5.327 C 13.947 5.758,13.863 6.015,13.584 6.520 C 13.208 7.200,13.084 7.551,13.022 8.111 C 13.003 8.282,12.990 9.123,12.990 10.199 L 12.990 12.000 12.002 12.000 L 11.014 12.000 11.002 10.012 C 10.991 8.141,10.987 8.009,10.929 7.755 C 10.843 7.376,10.727 7.096,10.431 6.549 C 10.129 5.990,10.056 5.770,10.023 5.325 C 9.978 4.708,10.072 4.281,10.338 3.892 C 10.807 3.207,11.602 2.883,12.414 3.047 M18.037 14.094 C 18.412 14.246,18.755 14.589,18.905 14.963 C 18.971 15.127,18.974 15.177,18.984 16.072 L 18.994 17.010 12.002 17.010 L 5.010 17.010 5.010 16.146 C 5.010 15.205,5.027 15.069,5.183 14.778 C 5.288 14.582,5.583 14.288,5.779 14.183 C 6.114 14.003,5.726 14.013,12.060 14.019 L 17.865 14.025 18.037 14.094 M4.762 21.032 C 4.588 21.074,4.434 21.163,4.294 21.304 C 3.726 21.871,4.033 22.829,4.830 22.980 C 5.048 23.021,18.952 23.021,19.170 22.980 C 19.720 22.876,20.076 22.368,19.978 21.828 C 19.960 21.729,19.920 21.600,19.890 21.540 C 19.807 21.378,19.595 21.180,19.410 21.093 L 19.245 21.015 12.060 21.010 C 7.934 21.008,4.827 21.017,4.762 21.032 " stroke="none" fill-rule="evenodd" fill="black" /></svg>
