<svg xmlns="http://www.w3.org/2000/svg" viewBox="0 0 24 24" width="24" height="24"><path d="M9.705 1.023 C 8.655 1.118,7.665 1.833,7.257 2.792 C 7.059 3.258,7.015 3.511,6.998 4.297 L 6.982 5.008 4.849 5.017 L 2.715 5.025 2.565 5.104 C 2.377 5.204,2.191 5.390,2.097 5.574 C 2.036 5.694,2.025 5.758,2.025 6.000 C 2.025 6.242,2.036 6.306,2.098 6.427 C 2.190 6.609,2.391 6.810,2.573 6.902 C 2.708 6.971,2.747 6.975,3.352 6.985 L 3.989 6.994 3.997 13.705 L 4.005 20.415 4.085 20.704 C 4.251 21.304,4.477 21.700,4.888 22.112 C 5.300 22.523,5.696 22.749,6.296 22.915 L 6.585 22.995 12.000 22.995 L 17.415 22.995 17.704 22.915 C 18.304 22.749,18.700 22.523,19.112 22.112 C 19.523 21.700,19.749 21.304,19.915 20.704 L 19.995 20.415 20.003 13.705 L 20.011 6.994 20.648 6.985 C 21.253 6.975,21.292 6.971,21.427 6.902 C 21.609 6.810,21.810 6.609,21.902 6.427 C 21.964 6.306,21.975 6.242,21.975 6.000 C 21.975 5.758,21.964 5.694,21.903 5.574 C 21.809 5.390,21.623 5.204,21.435 5.104 L 21.285 5.025 19.151 5.017 L 17.018 5.008 17.002 4.297 C 16.988 3.663,16.978 3.553,16.911 3.296 C 16.573 2.006,15.553 1.136,14.238 1.020 C 13.844 0.985,10.096 0.987,9.705 1.023 M14.404 3.094 C 14.620 3.196,14.804 3.380,14.906 3.596 C 14.982 3.759,14.985 3.787,14.995 4.388 L 15.005 5.010 12.000 5.010 L 8.995 5.010 9.005 4.388 C 9.015 3.791,9.018 3.758,9.093 3.600 C 9.194 3.386,9.304 3.258,9.474 3.158 C 9.741 3.002,9.724 3.003,12.060 3.009 L 14.235 3.015 14.404 3.094 M17.993 13.612 L 17.985 20.235 17.919 20.377 C 17.783 20.673,17.566 20.872,17.288 20.956 C 17.073 21.021,6.927 21.021,6.712 20.956 C 6.434 20.872,6.217 20.673,6.081 20.377 L 6.015 20.235 6.007 13.612 L 5.999 6.990 12.000 6.990 L 18.001 6.990 17.993 13.612 M9.812 10.026 C 9.514 10.072,9.235 10.290,9.093 10.590 L 9.015 10.755 9.007 13.944 C 8.998 17.479,8.989 17.306,9.194 17.585 C 9.559 18.082,10.271 18.135,10.705 17.699 C 10.866 17.537,10.935 17.404,10.977 17.176 C 11.021 16.940,11.023 11.057,10.979 10.827 C 10.875 10.277,10.383 9.940,9.812 10.026 M13.845 10.021 C 13.437 10.077,13.100 10.406,13.021 10.827 C 12.976 11.062,12.979 16.985,13.024 17.196 C 13.069 17.411,13.141 17.543,13.295 17.699 C 13.735 18.141,14.467 18.077,14.819 17.567 C 15.007 17.293,14.999 17.450,14.999 13.980 L 14.999 10.815 14.929 10.645 C 14.743 10.193,14.329 9.955,13.845 10.021 " stroke="none" fill-rule="evenodd" fill="black" /></svg>
