<svg xmlns="http://www.w3.org/2000/svg" viewBox="0 0 24 24" width="24" height="24"><path d="M4.624 3.034 C 4.426 3.067,4.163 3.171,3.941 3.304 C 3.704 3.447,3.336 3.844,3.220 4.083 C 3.014 4.507,3.015 4.497,3.015 5.940 L 3.015 7.245 3.093 7.410 C 3.180 7.595,3.378 7.807,3.540 7.890 C 3.600 7.920,3.729 7.960,3.828 7.978 C 4.368 8.076,4.876 7.720,4.980 7.170 C 4.996 7.083,5.010 6.561,5.010 6.011 L 5.010 5.010 8.010 5.010 L 11.010 5.010 11.010 12.000 L 11.010 18.990 10.027 18.990 C 9.487 18.990,8.959 19.004,8.854 19.021 C 8.607 19.062,8.454 19.142,8.277 19.323 C 7.816 19.797,7.969 20.604,8.576 20.902 L 8.745 20.985 12.000 20.985 L 15.255 20.985 15.424 20.902 C 16.031 20.604,16.184 19.797,15.723 19.323 C 15.546 19.142,15.393 19.062,15.146 19.021 C 15.041 19.004,14.513 18.990,13.973 18.990 L 12.990 18.990 12.990 12.000 L 12.990 5.010 15.990 5.010 L 18.990 5.010 18.990 6.011 C 18.990 6.564,19.004 7.084,19.021 7.173 C 19.124 7.719,19.633 8.076,20.172 7.978 C 20.271 7.960,20.400 7.920,20.460 7.890 C 20.622 7.807,20.820 7.595,20.907 7.410 L 20.985 7.245 20.994 6.045 C 21.003 4.758,20.991 4.594,20.858 4.260 C 20.645 3.723,20.148 3.268,19.560 3.070 C 19.402 3.017,19.107 3.015,12.090 3.011 C 7.883 3.008,4.717 3.018,4.624 3.034 " stroke="none" fill-rule="evenodd" fill="black" /></svg>
