<svg xmlns="http://www.w3.org/2000/svg" viewBox="0 0 24 24" width="24" height="24"><path d="M2.764 6.031 C 2.474 6.091,2.183 6.349,2.074 6.642 L 2.009 6.815 2.017 10.060 L 2.025 13.305 2.093 13.432 C 2.183 13.600,2.327 13.761,2.467 13.849 C 2.729 14.015,2.664 14.012,6.079 14.003 L 9.225 13.995 9.398 13.914 C 10.174 13.550,10.191 12.489,9.428 12.103 L 9.255 12.015 7.434 12.006 L 5.612 11.997 6.069 11.586 C 7.160 10.602,7.431 10.396,8.160 9.993 C 10.394 8.759,13.122 8.678,15.435 9.778 C 17.590 10.802,19.182 12.749,19.757 15.060 C 19.889 15.592,19.948 16.009,19.982 16.656 C 20.004 17.077,20.023 17.222,20.074 17.359 C 20.156 17.578,20.355 17.794,20.576 17.902 C 20.720 17.973,20.782 17.985,21.000 17.985 C 21.218 17.985,21.280 17.973,21.424 17.902 C 21.646 17.793,21.843 17.579,21.929 17.353 C 21.994 17.183,21.996 17.148,21.979 16.590 C 21.923 14.759,21.368 13.041,20.321 11.460 C 19.673 10.481,18.755 9.537,17.760 8.827 C 16.768 8.119,15.488 7.545,14.267 7.260 C 13.008 6.967,11.428 6.934,10.170 7.174 C 8.864 7.423,7.651 7.910,6.555 8.624 C 5.949 9.019,5.752 9.179,4.620 10.199 L 4.005 10.753 3.990 8.744 L 3.975 6.735 3.904 6.579 C 3.822 6.398,3.614 6.191,3.420 6.097 C 3.264 6.022,2.954 5.991,2.764 6.031 " stroke="none" fill-rule="evenodd" fill="black" /></svg>
