<svg xmlns="http://www.w3.org/2000/svg" viewBox="0 0 24 24" width="24" height="24"><path d="M14.827 1.025 C 14.612 1.059,14.448 1.148,14.277 1.323 C 14.014 1.593,14.010 1.617,14.010 3.000 C 14.010 4.387,14.013 4.406,14.282 4.682 C 14.490 4.896,14.712 4.991,15.000 4.991 C 15.288 4.991,15.510 4.896,15.718 4.682 C 15.987 4.406,15.990 4.387,15.990 2.999 C 15.990 1.896,15.985 1.789,15.933 1.651 C 15.762 1.202,15.315 0.949,14.827 1.025 M10.845 4.021 C 10.182 4.112,9.808 4.858,10.117 5.475 C 10.152 5.545,10.475 5.894,10.886 6.306 C 11.486 6.907,11.623 7.029,11.775 7.099 C 12.622 7.490,13.491 6.625,13.101 5.780 C 13.035 5.636,12.906 5.488,12.398 4.974 C 12.055 4.628,11.696 4.285,11.600 4.213 C 11.370 4.039,11.140 3.981,10.845 4.021 M18.812 4.026 C 18.722 4.040,18.587 4.086,18.512 4.129 C 18.436 4.172,18.062 4.520,17.679 4.903 C 17.093 5.488,16.969 5.626,16.900 5.776 C 16.509 6.625,17.376 7.491,18.225 7.099 C 18.377 7.029,18.514 6.907,19.114 6.306 C 19.529 5.890,19.848 5.545,19.884 5.473 C 19.977 5.289,20.016 5.022,19.980 4.829 C 19.875 4.277,19.384 3.940,18.812 4.026 M7.673 8.055 C 7.266 8.206,7.010 8.571,7.009 9.000 C 7.009 9.288,7.104 9.510,7.318 9.718 C 7.594 9.987,7.613 9.990,9.000 9.990 C 10.387 9.990,10.406 9.987,10.682 9.718 C 11.092 9.318,11.102 8.700,10.704 8.303 C 10.632 8.231,10.506 8.139,10.424 8.098 L 10.275 8.025 9.030 8.019 C 8.030 8.014,7.763 8.021,7.673 8.055 M14.730 8.037 C 14.467 8.122,14.222 8.330,14.097 8.574 C 14.036 8.694,14.025 8.758,14.025 9.000 C 14.025 9.334,14.084 9.482,14.301 9.699 C 14.495 9.894,14.668 9.969,14.955 9.984 C 15.271 10.000,15.480 9.925,15.692 9.718 C 16.102 9.318,16.112 8.700,15.714 8.303 C 15.516 8.105,15.333 8.027,15.045 8.019 C 14.913 8.015,14.771 8.023,14.730 8.037 M19.673 8.055 C 19.266 8.206,19.010 8.571,19.009 9.000 C 19.009 9.288,19.104 9.510,19.318 9.718 C 19.594 9.987,19.613 9.990,21.000 9.990 C 22.387 9.990,22.406 9.987,22.682 9.718 C 23.092 9.318,23.102 8.700,22.704 8.303 C 22.632 8.231,22.506 8.139,22.424 8.098 L 22.275 8.025 21.030 8.019 C 20.030 8.014,19.763 8.021,19.673 8.055 M17.562 10.832 C 17.108 10.941,16.775 11.396,16.806 11.865 C 16.829 12.220,16.905 12.327,17.694 13.114 C 18.110 13.529,18.455 13.848,18.527 13.884 C 19.135 14.190,19.853 13.838,19.980 13.171 C 20.016 12.978,19.977 12.711,19.884 12.527 C 19.848 12.455,19.529 12.110,19.114 11.694 C 18.530 11.109,18.374 10.970,18.235 10.906 C 18.043 10.818,17.754 10.786,17.562 10.832 M11.730 11.036 C 11.460 11.125,11.349 11.231,6.778 15.805 C 3.098 19.488,2.157 20.445,2.098 20.565 C 2.036 20.692,2.025 20.759,2.025 21.000 C 2.025 21.334,2.084 21.482,2.301 21.699 C 2.518 21.916,2.666 21.975,3.000 21.975 C 3.241 21.975,3.308 21.964,3.435 21.902 C 3.656 21.794,12.794 12.656,12.902 12.435 C 12.964 12.308,12.975 12.241,12.975 12.000 C 12.975 11.669,12.917 11.520,12.708 11.308 C 12.514 11.112,12.328 11.031,12.045 11.021 C 11.913 11.016,11.771 11.023,11.730 11.036 M14.827 13.025 C 14.612 13.059,14.448 13.148,14.277 13.323 C 14.014 13.593,14.010 13.617,14.010 15.000 C 14.010 16.387,14.013 16.406,14.282 16.682 C 14.490 16.896,14.712 16.991,15.000 16.991 C 15.288 16.991,15.510 16.896,15.718 16.682 C 15.987 16.406,15.990 16.387,15.990 14.999 C 15.990 13.896,15.985 13.789,15.933 13.651 C 15.762 13.202,15.315 12.949,14.827 13.025 " stroke="none" fill-rule="evenodd" fill="black" /></svg>
