<svg xmlns="http://www.w3.org/2000/svg" viewBox="0 0 24 24" width="24" height="24"><path d="M15.414 1.020 C 13.773 1.168,12.249 1.870,11.095 3.010 C 9.933 4.157,9.248 5.556,9.046 7.199 C 8.935 8.103,9.041 9.282,9.302 10.040 L 9.361 10.213 5.570 14.009 C 3.485 16.097,1.716 17.888,1.640 17.990 C 1.051 18.771,0.858 19.761,1.112 20.699 C 1.398 21.749,2.251 22.602,3.301 22.888 C 4.053 23.092,4.830 23.013,5.529 22.661 C 5.973 22.437,6.020 22.393,9.947 18.473 L 13.788 14.638 13.922 14.686 C 14.117 14.755,14.582 14.867,14.925 14.929 C 15.357 15.007,16.560 15.007,17.025 14.930 C 18.331 14.714,19.403 14.242,20.391 13.451 C 22.520 11.747,23.460 8.937,22.788 6.292 C 22.694 5.923,22.569 5.688,22.348 5.465 C 21.862 4.975,21.129 4.875,20.478 5.211 C 20.285 5.311,20.108 5.478,18.629 6.950 L 16.994 8.579 16.207 7.792 L 15.421 7.006 17.035 5.385 C 17.962 4.455,18.690 3.700,18.745 3.613 C 19.046 3.130,19.068 2.501,18.801 1.999 C 18.669 1.749,18.403 1.494,18.141 1.366 C 17.912 1.253,17.329 1.110,16.860 1.051 C 16.495 1.005,15.754 0.990,15.414 1.020 M16.438 3.019 C 16.534 3.038,16.528 3.044,15.188 4.392 C 14.416 5.167,13.796 5.815,13.735 5.910 C 13.351 6.506,13.309 7.245,13.623 7.890 C 13.744 8.138,13.777 8.174,14.801 9.199 C 15.835 10.233,15.860 10.256,16.110 10.375 C 16.772 10.690,17.493 10.650,18.090 10.265 C 18.185 10.204,18.833 9.583,19.610 8.811 L 20.965 7.462 20.987 7.605 C 21.018 7.817,20.982 8.554,20.924 8.880 C 20.857 9.259,20.652 9.878,20.476 10.230 C 19.987 11.211,19.110 12.072,18.142 12.524 C 17.151 12.986,16.008 13.120,14.976 12.897 C 14.701 12.837,14.377 12.733,13.905 12.554 C 13.727 12.486,13.661 12.476,13.470 12.487 C 13.046 12.512,13.341 12.241,8.820 16.753 C 4.294 21.270,4.631 20.961,4.198 20.993 C 3.732 21.027,3.316 20.777,3.109 20.340 C 3.027 20.166,3.017 20.116,3.018 19.875 C 3.020 19.374,2.640 19.795,7.260 15.165 C 10.632 11.786,11.373 11.028,11.430 10.905 C 11.478 10.802,11.504 10.680,11.513 10.515 C 11.526 10.286,11.521 10.259,11.390 9.930 C 11.112 9.227,11.010 8.716,11.010 8.036 C 11.010 7.333,11.118 6.751,11.367 6.115 C 11.784 5.049,12.703 4.055,13.758 3.530 C 14.228 3.296,14.880 3.097,15.390 3.032 C 15.631 3.002,16.309 2.993,16.438 3.019 " stroke="none" fill-rule="evenodd" fill="black" /></svg>
